<svg width="21" height="21" viewBox="0 0 21 21" fill="none" xmlns="http://www.w3.org/2000/svg">
<path d="M19.6101 17.69C20.2368 16.8499 20.6669 15.8799 20.8686 14.8514C21.0703 13.8229 21.0385 12.7623 20.7755 11.7478C20.5125 10.7332 20.025 9.79071 19.3491 8.98974C18.6732 8.18877 17.826 7.5498 16.8701 7.11999C16.6619 5.92209 16.1834 4.78741 15.4709 3.80216C14.7585 2.81691 13.8308 2.00702 12.7585 1.43402C11.6861 0.861024 10.4972 0.539995 9.28217 0.49533C8.06713 0.450664 6.8579 0.683536 5.74635 1.17625C4.6348 1.66897 3.65018 2.40857 2.86731 3.33884C2.08443 4.26912 1.5239 5.36561 1.22831 6.54499C0.93271 7.72437 0.909825 8.95561 1.16139 10.1452C1.41295 11.3347 1.93235 12.4513 2.68011 13.41L1.29011 14.79C1.15136 14.9306 1.05736 15.1092 1.01998 15.3032C0.982611 15.4972 1.00353 15.6979 1.08011 15.88C1.15513 16.0626 1.28253 16.2189 1.44625 16.3293C1.60997 16.4396 1.80269 16.499 2.00011 16.5H7.69011C8.25676 17.6946 9.15015 18.7043 10.2669 19.4122C11.3836 20.1201 12.6779 20.4972 14.0001 20.5H20.0001C20.1975 20.499 20.3903 20.4396 20.554 20.3293C20.7177 20.2189 20.8451 20.0626 20.9201 19.88C20.9967 19.6979 21.0176 19.4972 20.9802 19.3032C20.9429 19.1092 20.8489 18.9306 20.7101 18.79L19.6101 17.69ZM7.00011 13.5C7.00149 13.8349 7.02823 14.1692 7.08011 14.5H4.41011L4.76011 14.16C4.85384 14.067 4.92824 13.9564 4.979 13.8346C5.02977 13.7127 5.05591 13.582 5.05591 13.45C5.05591 13.318 5.02977 13.1873 4.979 13.0654C4.92824 12.9436 4.85384 12.833 4.76011 12.74C4.19967 12.1857 3.75536 11.5252 3.45317 10.7972C3.15097 10.0692 2.99695 9.28823 3.00011 8.49999C3.00011 6.90869 3.63225 5.38257 4.75747 4.25735C5.88269 3.13213 7.40881 2.49999 9.00011 2.49999C10.2418 2.49253 11.4546 2.87438 12.468 3.59186C13.4815 4.30934 14.2446 5.32637 14.6501 6.49999H14.0001C12.1436 6.49999 10.3631 7.23749 9.05037 8.55025C7.73761 9.863 7.00011 11.6435 7.00011 13.5ZM17.5401 18.5L17.5901 18.55H14.0001C12.8435 18.5479 11.7233 18.1449 10.8304 17.4096C9.93758 16.6743 9.32728 15.6521 9.10351 14.5173C8.87973 13.3825 9.05632 12.2052 9.60319 11.186C10.1501 10.1668 11.0334 9.3687 12.1027 8.92769C13.172 8.48669 14.3611 8.43005 15.4674 8.76742C16.5738 9.1048 17.529 9.81532 18.1703 10.7779C18.8115 11.7406 19.0992 12.8957 18.9843 14.0467C18.8694 15.1976 18.359 16.2731 17.5401 17.09C17.3517 17.2746 17.2439 17.5262 17.2401 17.79C17.2407 17.9223 17.2675 18.0532 17.319 18.1751C17.3705 18.2969 17.4456 18.4074 17.5401 18.5Z" fill="black"/>
</svg>
