<svg width="150" height="154" viewBox="0 0 150 154" fill="none" xmlns="http://www.w3.org/2000/svg">
<path d="M21.9671 141.163C51.2548 157.372 98.7452 157.372 128.033 141.163C157.321 124.954 157.324 98.677 128.033 82.4717C98.7417 66.2664 51.2548 66.2629 21.9671 82.4717C-7.3206 98.6805 -7.32412 124.954 21.9671 141.163Z" fill="#F5F5F5"/>
<path d="M137.808 74.2064L134.682 72.3953L134.636 72.3636C132.29 71.0413 129.076 71.2348 125.514 73.2921C122.18 75.2122 119.141 78.4195 116.848 82.1297C114.2 86.3991 112.533 91.3437 112.533 95.7783C112.533 99.9105 113.979 102.812 116.321 104.173L119.518 105.998C121.884 107.503 125.225 107.37 128.928 105.231C136.099 101.092 141.912 91.0236 141.912 82.7452C141.909 78.4582 140.33 75.4865 137.808 74.2064Z" fill="#37474F"/>
<path d="M119.424 105.968L116.319 104.192C113.977 102.834 112.531 99.9292 112.531 95.7935C112.531 91.3624 114.198 86.4213 116.846 82.1484L120.265 84.1284C117.616 88.3977 115.957 93.3353 115.957 97.7629C115.943 101.709 117.265 104.536 119.424 105.968Z" fill="#263238"/>
<path d="M137.711 74.1535C135.401 73.0317 132.316 73.3165 128.919 75.2683C125.582 77.1991 122.54 80.4064 120.243 84.1201L116.85 82.1401C119.143 78.4299 122.185 75.2261 125.515 73.306C129.074 71.2487 132.292 71.0517 134.637 72.374L134.687 72.4057L137.711 74.1535Z" fill="#455A64"/>
<path d="M123.665 103.998C122.796 104.018 121.941 103.785 121.203 103.326L121.161 103.298L121.094 103.263C119.518 102.18 118.66 99.996 118.66 97.0981C118.66 93.4899 120.014 89.2381 122.374 85.433C124.424 82.1202 127.048 79.4299 129.759 77.8544C131.359 76.9365 132.924 76.4476 134.275 76.4476C134.968 76.4388 135.655 76.5841 136.286 76.8732L136.381 76.9259C138.217 77.8544 139.265 80.1965 139.265 83.3511C139.265 90.4198 134.282 99.0499 128.159 102.588C126.58 103.509 125.018 103.998 123.665 103.998Z" fill="#FAFAFA"/>
<path d="M129.91 89.891L129.505 89.9261C128.956 89.9867 128.4 89.9294 127.874 89.7581C127.348 89.5868 126.865 89.3054 126.457 88.9327C126.048 88.56 125.724 88.1045 125.506 87.5966C125.287 87.0887 125.18 86.5401 125.19 85.9873C125.21 84.8584 125.643 83.7758 126.407 82.9444C127.171 82.113 128.213 81.5904 129.336 81.4753L130.075 81.412C130.603 81.354 131.137 81.4091 131.643 81.5737C132.148 81.7383 132.612 82.0086 133.005 82.3666C133.397 82.7246 133.709 83.162 133.919 83.6499C134.13 84.1378 134.234 84.6649 134.225 85.1961C134.203 86.3707 133.753 87.4969 132.958 88.3619C132.163 89.2269 131.078 89.7708 129.91 89.891Z" fill="#263238"/>
<path d="M123.18 92.194C123.93 92.1169 124.626 91.7677 125.137 91.2125C125.647 90.6572 125.937 89.9343 125.951 89.1802V84.1055C125.201 84.1827 124.504 84.5318 123.994 85.087C123.483 85.6423 123.194 86.3652 123.18 87.1193V92.194Z" fill="#263238"/>
<path d="M131.425 91.1391C130.352 92.2469 130.964 93.7872 132.951 98.57C133.822 97.5822 134.617 96.53 135.329 95.4225C134.812 93.5586 133.996 90.7101 131.425 91.1391Z" fill="#FFA8A7"/>
<path d="M134.482 96.6678C134.666 95.9884 134.676 95.2734 134.51 94.5894C134.021 92.7184 132.132 91.0198 131.295 91.1605L128.158 91.5122C126.14 91.8287 125.996 92.8169 125.493 93.9282C125.163 94.774 125.175 95.7151 125.528 96.5517L126.804 100.483C126.804 100.483 126.143 102.133 125.38 103.705L125.44 103.729C126.4 103.468 127.32 103.079 128.176 102.572C130.515 101.236 132.674 99.1365 134.482 96.6678Z" fill="#EBEBEB"/>
<path d="M125.57 82.3477L126.182 83.2761C126.125 83.3253 126.059 83.3622 125.987 83.3842C125.915 83.4062 125.839 83.413 125.764 83.4041C125.689 83.3951 125.617 83.3707 125.552 83.3323C125.487 83.2939 125.431 83.2424 125.388 83.1811C125.309 83.0444 125.284 82.8832 125.317 82.729C125.351 82.5748 125.441 82.4388 125.57 82.3477Z" fill="#263238"/>
<path d="M132.741 83.0049C133.219 83.244 133.796 84.394 133.75 86.9155C133.701 89.0537 133.008 89.641 132.664 89.8204C132.319 89.9997 131.647 89.9716 130.997 89.9189V91.199C130.997 91.199 131.893 92.1661 131.837 92.7569C131.781 93.3477 130.539 93.5974 129.699 93.1086C129.154 92.7657 128.683 92.3159 128.317 91.7863V88.6774C128.187 88.8543 127.994 88.9747 127.779 89.014C127.563 89.0532 127.34 89.0083 127.156 88.8884C126.453 88.4735 126.411 87.2954 126.829 86.8347C127.248 86.374 128.148 86.4302 128.317 86.9999C129.186 86.8856 130.015 86.5662 130.736 86.068C131.273 85.7337 131.73 85.2866 132.077 84.7576C132.423 84.2286 132.649 83.6304 132.741 83.0049Z" fill="#FFA8A7"/>
<path d="M131.131 86.6099C131.133 86.6839 131.109 86.7564 131.063 86.8139C131.016 86.8715 130.95 86.9102 130.877 86.9229C130.843 86.9274 130.807 86.9244 130.774 86.9143C130.74 86.9043 130.709 86.8872 130.683 86.8643C130.656 86.8414 130.635 86.8132 130.62 86.7815C130.605 86.7498 130.597 86.7153 130.596 86.6803C130.592 86.6061 130.616 86.5332 130.663 86.4755C130.71 86.4178 130.776 86.3793 130.849 86.3673C130.884 86.3628 130.919 86.3657 130.953 86.3758C130.986 86.3859 131.018 86.403 131.044 86.4259C131.071 86.4487 131.092 86.477 131.107 86.5087C131.122 86.5404 131.13 86.5749 131.131 86.6099Z" fill="#263238"/>
<path d="M131.44 88.3896L132.062 88.5338C132.04 88.6205 131.986 88.6956 131.911 88.7439C131.836 88.7922 131.746 88.8102 131.658 88.7941C131.616 88.7829 131.577 88.7633 131.544 88.7366C131.51 88.7099 131.482 88.6766 131.462 88.6387C131.441 88.6009 131.429 88.5593 131.425 88.5165C131.421 88.4736 131.426 88.4305 131.44 88.3896Z" fill="#F28F8F"/>
<path d="M133.329 85.5935L132.787 85.2629C132.806 85.2212 132.833 85.1839 132.867 85.1536C132.901 85.1232 132.941 85.1005 132.984 85.0869C133.028 85.0733 133.074 85.0691 133.119 85.0747C133.164 85.0802 133.208 85.0954 133.247 85.1191C133.285 85.1429 133.319 85.1747 133.344 85.2124C133.37 85.25 133.387 85.2928 133.395 85.3377C133.403 85.3826 133.401 85.4286 133.39 85.4728C133.378 85.5169 133.357 85.558 133.329 85.5935Z" fill="#263238"/>
<path d="M133.204 86.2339C133.207 86.3084 133.183 86.3813 133.135 86.4389C133.088 86.4966 133.021 86.535 132.948 86.5469C132.913 86.5519 132.878 86.5495 132.844 86.5398C132.811 86.5302 132.78 86.5135 132.753 86.4908C132.726 86.4682 132.705 86.4402 132.69 86.4086C132.675 86.3771 132.667 86.3427 132.666 86.3078C132.663 86.2332 132.686 86.1599 132.733 86.1016C132.78 86.0433 132.846 86.004 132.92 85.9913C132.955 85.9868 132.99 85.9898 133.024 85.9998C133.057 86.0099 133.089 86.0269 133.116 86.0497C133.142 86.0726 133.164 86.1007 133.179 86.1324C133.195 86.1642 133.203 86.1987 133.204 86.2339Z" fill="#263238"/>
<path d="M131.895 86.1953L131.937 87.806L132.788 87.4684L131.895 86.1953Z" fill="#F28F8F"/>
<path d="M130.997 89.9184C130.294 89.8868 128.887 89.6054 128.68 89.0674C128.763 89.335 128.931 89.5683 129.158 89.7321C129.58 90.0556 130.983 90.3405 130.983 90.3405L130.997 89.9184Z" fill="#F28F8F"/>
<path d="M127.565 101.605C127.694 101.304 127.908 101.047 128.18 100.866C128.273 100.798 128.385 100.761 128.501 100.761C128.616 100.761 128.728 100.798 128.821 100.866C128.363 100.602 127.565 99.1991 127.456 98.6681L126.911 96.9097C126.86 96.4905 126.897 96.0653 127.02 95.6612L125.613 94.1455L125.349 94.3495C125.177 95.0872 125.244 95.8605 125.539 96.558L126.816 100.49C126.816 100.49 126.155 102.139 125.392 103.711L125.451 103.736C126.224 103.528 126.971 103.233 127.678 102.857C127.56 102.672 127.488 102.462 127.468 102.244C127.449 102.026 127.482 101.807 127.565 101.605Z" fill="#E0E0E0"/>
<path d="M126.436 97.1395C127.572 96.2603 128.489 93.5664 127.392 91.7061C125.774 92.0296 124.146 93.271 122.381 99.9634C122.223 100.575 122.173 102.151 122.191 103.779C122.668 103.927 123.165 104.001 123.664 103.997C124.042 103.994 124.418 103.959 124.79 103.892C124.814 102.682 124.846 101.567 124.871 101.124L126.436 97.1395Z" fill="#FFA8A7"/>
<path d="M114.781 93.032C114.698 93.0325 114.617 93.0206 114.538 92.9969L91.4608 86.5014C91.3474 86.4695 91.2414 86.4156 91.1489 86.3428C91.0563 86.27 90.979 86.1797 90.9214 86.0769C90.8637 85.9742 90.8269 85.8612 90.813 85.7442C90.799 85.6273 90.8082 85.5088 90.8401 85.3954C90.872 85.282 90.9258 85.176 90.9987 85.0835C91.0715 84.9909 91.1618 84.9136 91.2645 84.856C91.3673 84.7983 91.4803 84.7615 91.5972 84.7475C91.7142 84.7336 91.8327 84.7428 91.9461 84.7747L115.023 91.2701C115.23 91.3299 115.409 91.4623 115.526 91.643C115.644 91.8238 115.692 92.0408 115.663 92.2544C115.633 92.4679 115.528 92.6637 115.366 92.8059C115.204 92.9481 114.996 93.0271 114.781 93.0285V93.032Z" fill="#E0E0E0"/>
<path d="M127.67 74.686C127.432 74.686 127.204 74.5916 127.036 74.4234C126.868 74.2552 126.773 74.0271 126.773 73.7893V51.3206C126.773 51.0828 126.868 50.8547 127.036 50.6865C127.204 50.5183 127.432 50.4238 127.67 50.4238C127.908 50.4238 128.136 50.5183 128.304 50.6865C128.473 50.8547 128.567 51.0828 128.567 51.3206V73.7893C128.567 74.0271 128.473 74.2552 128.304 74.4234C128.136 74.5916 127.908 74.686 127.67 74.686Z" fill="#E0E0E0"/>
<path d="M133.416 27.4859L130.74 25.935L130.698 25.9104C128.69 24.778 125.936 24.9433 122.884 26.7052C120.014 28.3405 117.412 31.0871 115.442 34.2662C113.174 37.9237 111.746 42.1614 111.746 45.956C111.746 49.4974 112.984 51.9837 114.992 53.1478L117.732 54.7092C119.757 55.9999 122.62 55.8874 125.792 54.0551C131.936 50.5067 136.916 41.8836 136.916 34.7937C136.93 31.1117 135.576 28.5655 133.416 27.4859Z" fill="#90CAF9"/>
<path opacity="0.1" d="M117.665 54.6756L115.006 53.1599C113.002 51.9958 111.764 49.5095 111.764 45.9681C111.764 42.17 113.191 37.9358 115.46 34.2783L118.389 35.9734C116.121 39.6308 114.697 43.8615 114.697 47.6561C114.683 51.0287 115.815 53.4518 117.665 54.6756Z" fill="black"/>
<path opacity="0.4" d="M133.331 27.4229C131.351 26.4629 128.71 26.7196 125.805 28.3795C122.9 30.0394 120.344 32.7825 118.374 35.9617L115.441 34.2666C117.407 31.1015 120.013 28.3408 122.865 26.6985C125.914 24.9401 128.671 24.7678 130.68 25.9002L130.722 25.9248L133.331 27.4229Z" fill="white"/>
<path d="M121.301 52.9899C120.556 53.0064 119.823 52.806 119.191 52.4131L119.155 52.392L119.099 52.3568C117.752 51.4319 117.014 49.561 117.014 47.0817C117.014 43.9904 118.174 40.3506 120.179 37.0905C121.937 34.2525 124.184 31.949 126.509 30.5986C127.674 29.8715 129.006 29.4561 130.377 29.3923C130.97 29.3812 131.557 29.5013 132.097 29.744L132.182 29.7897C133.75 30.5845 134.643 32.6031 134.643 35.2935C134.643 41.3529 130.374 48.7451 125.127 51.773C123.976 52.4991 122.659 52.9181 121.301 52.9899Z" fill="#FAFAFA"/>
<path d="M131.972 42.8052C130.647 41.4442 130.045 41.2649 128.902 41.2402L130.597 46.2165L130.791 46.3923C131.45 45.4455 132.038 44.4511 132.549 43.4171C132.363 43.1991 132.162 42.9951 131.972 42.8052Z" fill="#37474F"/>
<path d="M130.565 46.7198C130.53 45.5804 130.505 44.6555 130.505 44.2862C130.505 42.9604 129.77 41.4376 127.737 41.5009L125.114 41.8104C124.505 42.0109 123.274 42.3203 123.004 43.5688C122.673 45.0599 122.564 48.2531 122.564 48.2531L122.49 52.8601C123.434 52.6511 124.34 52.2951 125.174 51.8051C127.302 50.4999 129.138 48.7685 130.565 46.7198Z" fill="#F5F5F5"/>
<path d="M130.818 44.212C130.635 41.8593 130.656 41.1771 127.709 41.1876V41.3635C128.271 41.7851 128.678 42.3793 128.87 43.055C128.975 43.5017 129.042 45.9142 129.084 48.5412C129.739 47.82 130.344 47.0551 130.895 46.2518C130.871 45.3058 130.846 44.5567 130.818 44.212Z" fill="#455A64"/>
<path d="M124.586 41.4658L122.452 41.8456C121.959 42.0848 121.72 44.5043 121.682 46.0482C121.66 46.8605 121.731 50.3351 121.787 52.9657C122.988 52.8164 124.142 52.4123 125.174 51.7805C125.577 51.5468 125.968 51.2921 126.345 51.0174C126.324 49.4454 126.303 47.796 126.299 46.4983C126.267 42.3591 124.586 41.4658 124.586 41.4658Z" fill="#455A64"/>
<path d="M122.771 41.7861C120.31 41.9866 119.487 44.4483 118.636 48.6755C118.46 49.5406 118.316 50.5218 118.203 51.4889C118.249 51.5557 118.302 51.6155 118.354 51.6788C118.572 51.9404 118.824 52.1712 119.103 52.3646L119.16 52.3997L119.195 52.4208C119.572 52.6557 119.989 52.8191 120.426 52.9026C120.514 52.9202 120.598 52.9413 120.689 52.9554C120.689 52.9343 120.689 52.9167 120.689 52.8956C121.059 50.8067 121.713 48.1163 122.265 46.7764C123.155 44.7648 122.771 41.7861 122.771 41.7861Z" fill="#37474F"/>
<path d="M124.385 43.748L125.162 44.6378L124.775 45.7632L125.791 48.2847L124.564 45.7843L124.993 44.7152L124.385 43.748Z" fill="#37474F"/>
<path d="M129.851 42.9531L129.682 43.9589L130.354 44.7748L129.422 47.7957L130.143 44.8241L129.524 44.0644L129.851 42.9531Z" fill="#37474F"/>
<path d="M129.725 37.2913C130.71 36.2625 130.744 34.6983 129.802 33.7974C128.86 32.8965 127.299 33.0001 126.315 34.0289C125.331 35.0576 125.297 36.6219 126.238 37.5228C127.18 38.4237 128.741 38.32 129.725 37.2913Z" fill="#263238"/>
<path d="M123.752 37.7832C123.9 38.5055 124.086 39.2192 124.311 39.9214C124.364 40.0109 124.436 40.0884 124.52 40.1489C124.605 40.2094 124.702 40.2517 124.803 40.2731L124.775 38.9543L123.752 37.7832Z" fill="#263238"/>
<path d="M124.256 35.0508C124.11 35.0499 123.966 35.081 123.833 35.1417C123.701 35.2025 123.583 35.2915 123.489 35.4025C123.158 35.7542 123.341 36.8092 123.753 37.7974L124.505 37.8185L124.256 35.0508Z" fill="#263238"/>
<path d="M124.73 37.7836C124.579 37.8891 124.379 37.6183 124.178 37.432C124.096 37.3556 123.996 37.301 123.887 37.273C123.778 37.2451 123.664 37.2448 123.555 37.272C123.447 37.2992 123.346 37.3532 123.263 37.429C123.18 37.5049 123.118 37.6001 123.081 37.7063C122.972 38.017 122.989 38.3582 123.128 38.6567C123.267 38.9552 123.518 39.1872 123.827 39.3029C124.653 39.4893 124.776 38.9512 124.776 38.9512L124.836 42.0108C125.406 42.693 126.689 43.4386 127.379 43.2557C127.927 43.108 128.047 42.1655 127.523 41.6028V40.699C127.894 40.7244 128.266 40.7103 128.634 40.6568C129.242 40.5091 129.622 39.9957 129.805 39.324C130.101 38.2443 130.213 37.3827 129.963 35.3324C129.689 33.0817 127.045 33.2927 125.617 34.3196C124.189 35.3465 124.73 37.7836 124.73 37.7836Z" fill="#FFA8A7"/>
<path d="M124.731 38.0381C124.657 38.0381 124.379 37.5914 124.179 37.4367C123.918 37.2222 124.256 35.0488 124.256 35.0488C124.164 34.8577 124.133 34.6434 124.165 34.4339C124.197 34.2244 124.291 34.0293 124.435 33.8742C124.787 33.4487 125.286 32.9247 126.897 32.9739C128.051 33.0056 129.306 33.2553 130.322 32.668C130.411 33.0072 130.402 33.3647 130.295 33.6986C130.187 34.0325 129.987 34.3289 129.718 34.553C129.308 34.7949 128.855 34.9561 128.385 35.0277C127.5 35.1741 126.604 35.2366 125.708 35.2141C125.431 35.2141 125.357 35.4779 125.22 36.234C125.096 36.8986 124.987 38.0135 124.731 38.0381Z" fill="#263238"/>
<path d="M124.254 35.2241L123.34 34.8162C123.395 34.6847 123.5 34.5804 123.632 34.5257C123.763 34.4711 123.911 34.4706 124.043 34.5243C124.104 34.5557 124.157 34.5989 124.201 34.6513C124.244 34.7038 124.277 34.7644 124.296 34.8297C124.316 34.8949 124.323 34.9634 124.315 35.0312C124.308 35.0989 124.287 35.1645 124.254 35.2241Z" fill="#263238"/>
<path d="M127.518 40.7026C126.9 40.6446 126.289 40.5268 125.693 40.351C125.416 40.2339 125.185 40.0271 125.039 39.7637C125.104 40.0284 125.224 40.2764 125.391 40.4916C125.742 40.9031 127.501 41.0719 127.501 41.0719L127.518 40.7026Z" fill="#F28F8F"/>
<path d="M127.196 37.2279C127.194 37.3034 127.166 37.376 127.116 37.4322C127.065 37.4885 126.996 37.5246 126.921 37.5339C126.886 37.5364 126.851 37.5314 126.817 37.5193C126.784 37.5073 126.754 37.4884 126.728 37.4639C126.703 37.4393 126.683 37.4097 126.669 37.377C126.656 37.3442 126.649 37.309 126.651 37.2736C126.651 37.1985 126.678 37.1259 126.728 37.0696C126.778 37.0133 126.847 36.9771 126.921 36.9677C126.957 36.9647 126.993 36.9693 127.026 36.9811C127.06 36.9929 127.091 37.0117 127.117 37.0363C127.143 37.0609 127.163 37.0907 127.177 37.1237C127.19 37.1567 127.197 37.1922 127.196 37.2279Z" fill="#263238"/>
<path d="M126.907 36.2293L126.344 36.6021C126.3 36.5212 126.289 36.4261 126.314 36.3373C126.339 36.2485 126.398 36.1731 126.478 36.1273C126.513 36.1055 126.551 36.0909 126.592 36.0842C126.632 36.0775 126.674 36.079 126.714 36.0885C126.754 36.098 126.791 36.1153 126.825 36.1395C126.858 36.1636 126.886 36.1942 126.907 36.2293Z" fill="#263238"/>
<path d="M127.4 39.0918L128.019 39.2676C127.993 39.3539 127.936 39.4272 127.858 39.4723C127.78 39.5175 127.688 39.5311 127.6 39.5103C127.559 39.4969 127.521 39.4753 127.488 39.4467C127.456 39.4181 127.429 39.3832 127.41 39.3441C127.392 39.3049 127.381 39.2624 127.379 39.219C127.377 39.1756 127.384 39.1324 127.4 39.0918Z" fill="#F28F8F"/>
<path d="M129.612 36.2153L129.084 35.8637C129.107 35.8258 129.137 35.7929 129.172 35.7669C129.208 35.7408 129.248 35.7222 129.291 35.712C129.334 35.7019 129.379 35.7004 129.422 35.7077C129.466 35.715 129.507 35.731 129.545 35.7546C129.61 35.8101 129.653 35.8875 129.665 35.9723C129.678 36.0572 129.658 36.1436 129.612 36.2153Z" fill="#263238"/>
<path d="M129.45 36.9503C129.45 37.0255 129.422 37.098 129.372 37.1543C129.322 37.2106 129.254 37.2469 129.179 37.2563C129.144 37.2587 129.108 37.2538 129.075 37.2417C129.042 37.2297 129.011 37.2108 128.986 37.1862C128.96 37.1617 128.94 37.1321 128.927 37.0994C128.914 37.0666 128.907 37.0314 128.908 36.996C128.909 36.9208 128.936 36.8483 128.986 36.792C129.036 36.7357 129.105 36.6995 129.179 36.6901C129.214 36.6876 129.25 36.6926 129.283 36.7046C129.316 36.7167 129.347 36.7356 129.372 36.7601C129.398 36.7846 129.418 36.8142 129.431 36.847C129.445 36.8797 129.451 36.9149 129.45 36.9503Z" fill="#263238"/>
<path d="M128.068 36.8164L128.156 38.4376L129.011 38.0719L128.068 36.8164Z" fill="#F28F8F"/>
<path d="M128.364 42.9818C128.198 43.3933 127.889 43.5832 127.333 43.6852C127.063 43.7326 126.786 43.7217 126.52 43.6532C126.254 43.5846 126.007 43.4601 125.793 43.2878L126.496 42.5352L127.376 43.119L127.449 42.377L128.364 42.9818Z" fill="#37474F"/>
<path d="M127.773 44.1772C127.907 43.9874 127.991 43.7675 128.019 43.5372C128.041 43.2896 128.01 43.0403 127.928 42.8057L127.365 43.1257L126.606 43.1081C126.602 43.3364 126.652 43.5624 126.75 43.7685C126.848 43.9746 126.993 44.1554 127.172 44.2968C127.172 44.2968 127.172 44.346 127.172 44.4339C127.112 45.2533 126.82 49.5016 126.82 49.8322C126.858 50.0584 126.936 50.2761 127.049 50.4757C127.607 50.0201 128.138 49.5315 128.638 49.0128C128.42 47.7045 127.773 44.1772 127.773 44.1772Z" fill="#455A64"/>
<path d="M127.715 44.2154C127.636 44.2699 127.546 44.3055 127.452 44.3195C127.357 44.3335 127.261 44.3256 127.17 44.2963C127.17 44.2963 127.17 44.3456 127.17 44.4335C127.28 44.4526 127.394 44.4464 127.502 44.4153C127.61 44.3843 127.709 44.3291 127.792 44.2541V44.1768L127.715 44.2154Z" fill="#37474F"/>
<path d="M127.365 43.1265L124.826 41.4209V40.8477C124.826 40.8477 124.235 41.122 124.102 42.177C124.506 43.0387 125.21 43.7246 126.082 44.1077L126.616 43.1089L127.365 43.1265Z" fill="#E0E0E0"/>
<path d="M127.518 40.8682C127.677 40.8793 127.832 40.9235 127.973 40.998C128.114 41.0725 128.238 41.1756 128.337 41.3007C128.591 41.6981 128.534 43.3053 128.534 43.3053L127.926 42.8059L127.363 43.1259C127.416 42.5879 127.522 41.6067 127.522 41.6067L127.518 40.8682Z" fill="#E0E0E0"/>
<path d="M88.1069 69.4383C87.9223 69.439 87.742 69.3826 87.5906 69.277C87.4392 69.1713 87.3241 69.0215 87.261 68.848C87.1979 68.6745 87.1899 68.4858 87.2381 68.3076C87.2863 68.1294 87.3883 67.9704 87.5302 67.8523L112.58 46.9134C112.763 46.7609 112.999 46.6873 113.236 46.7087C113.473 46.7302 113.692 46.8449 113.844 47.0277C113.997 47.2105 114.071 47.4464 114.049 47.6835C114.028 47.9206 113.913 48.1395 113.73 48.292L88.6837 69.2309C88.5219 69.3659 88.3176 69.4394 88.1069 69.4383Z" fill="#E0E0E0"/>
<path d="M116.764 35.927C116.66 35.9267 116.557 35.9088 116.458 35.8743L83.295 23.8152C83.1801 23.7784 83.0738 23.7188 82.9825 23.6399C82.8912 23.5611 82.8167 23.4646 82.7636 23.3563C82.7104 23.2479 82.6797 23.13 82.6732 23.0095C82.6667 22.889 82.6846 22.7685 82.7258 22.655C82.767 22.5416 82.8306 22.4377 82.9129 22.3495C82.9952 22.2612 83.0945 22.1905 83.2048 22.1416C83.3151 22.0926 83.4341 22.0664 83.5548 22.0646C83.6754 22.0627 83.7952 22.0852 83.907 22.1307L117.07 34.1862C117.269 34.2577 117.436 34.3971 117.543 34.5799C117.649 34.7628 117.687 34.9772 117.65 35.1855C117.614 35.3937 117.505 35.5823 117.343 35.718C117.18 35.8537 116.976 35.9277 116.764 35.927Z" fill="#E0E0E0"/>
<path d="M61.0389 132.286L60.2758 131.843C59.9476 131.63 59.6745 131.342 59.4789 131.002C59.2834 130.663 59.1708 130.283 59.1504 129.892V62.8056C59.1713 62.4147 59.2842 62.0343 59.4797 61.6951C59.6752 61.356 59.948 61.0678 60.2758 60.8538L91.2234 42.9886C91.5728 42.8118 91.9589 42.7197 92.3505 42.7197C92.7421 42.7197 93.1282 42.8118 93.4776 42.9886L94.2443 43.4317C94.5714 43.6455 94.8437 43.9333 95.0392 44.2717C95.2347 44.6101 95.3479 44.9898 95.3696 45.38V112.48C95.3479 112.87 95.2347 113.25 95.0392 113.588C94.8437 113.927 94.5714 114.214 94.2443 114.428L63.2967 132.297C62.946 132.473 62.5588 132.563 62.1665 132.562C61.7743 132.56 61.388 132.465 61.0389 132.286Z" fill="#37474F"/>
<path d="M63.6765 64.1174L59.4775 61.6943C59.2757 62.0309 59.1631 62.4134 59.1504 62.8056V129.902C59.1708 130.293 59.2834 130.674 59.4789 131.013C59.6745 131.352 59.9476 131.64 60.2758 131.854L61.0389 132.286C61.3883 132.463 61.7744 132.555 62.166 132.555C62.5576 132.555 62.9437 132.463 63.2932 132.286L63.6765 132.065V64.1174Z" fill="#263238"/>
<path d="M62.168 64.5451V131.645C62.168 132.348 62.6709 132.654 63.2933 132.296L94.2409 114.427C94.5681 114.213 94.8404 113.925 95.0359 113.587C95.2313 113.249 95.3445 112.869 95.3663 112.479V45.3787C95.3663 44.6753 94.8599 44.3694 94.2409 44.7281L63.2933 62.5968C62.9656 62.81 62.6929 63.0976 62.4973 63.4361C62.3017 63.7747 62.1889 64.1547 62.168 64.5451Z" fill="#455A64"/>
<path d="M64.6413 68.7867L92.7755 52.5427C93.3065 52.2368 93.7391 52.4865 93.7391 53.1019V106.631C93.7211 106.965 93.6245 107.291 93.4571 107.581C93.2896 107.871 93.0561 108.118 92.7755 108.301L64.6413 124.545C64.1103 124.855 63.6777 124.605 63.6777 123.989V70.4607C63.6963 70.1258 63.7931 69.7998 63.9605 69.5091C64.1278 69.2184 64.361 68.971 64.6413 68.7867Z" fill="#FAFAFA"/>
<path d="M78.7659 55.4061C79.1808 55.167 79.5185 55.3604 79.5185 55.8422C79.5045 56.1036 79.4291 56.3579 79.2983 56.5846C79.1675 56.8114 78.9851 57.004 78.7659 57.1469C78.3474 57.3896 78.0098 57.1927 78.0098 56.7144C78.0236 56.4521 78.0993 56.1968 78.2307 55.9695C78.3621 55.7421 78.5455 55.549 78.7659 55.4061Z" fill="#263238"/>
<path d="M76.5877 59.1759C78.121 58.3284 80.857 56.7142 82.3657 55.8103C82.6224 55.6591 82.8299 55.7646 82.8299 56.0425C82.8187 56.1993 82.7708 56.3513 82.6902 56.4862C82.6096 56.6212 82.4985 56.7354 82.3657 56.8197L76.5771 60.1606C76.3169 60.3118 76.1094 60.2063 76.1094 59.925C76.1225 59.7707 76.1729 59.622 76.2562 59.4915C76.3395 59.361 76.4533 59.2527 76.5877 59.1759Z" fill="#263238"/>
<path d="M75.1232 60.0209C75.3588 59.8872 75.5487 59.9963 75.5487 60.2671C75.5405 60.4139 75.4977 60.5568 75.4238 60.6839C75.3498 60.811 75.2468 60.9188 75.1232 60.9985C74.8911 61.1357 74.7012 61.0267 74.7012 60.7559C74.709 60.6089 74.7512 60.4657 74.8245 60.3381C74.8978 60.2104 75.0001 60.1017 75.1232 60.0209Z" fill="#263238"/>
<path d="M78.7665 118.135C79.6 117.653 80.2752 118.044 80.2752 119.007C80.2466 119.531 80.0951 120.04 79.833 120.494C79.5709 120.948 79.2055 121.334 78.7665 121.62C77.933 122.102 77.2578 121.712 77.2578 120.748C77.2864 120.225 77.4379 119.715 77.7 119.261C77.9621 118.807 78.3275 118.422 78.7665 118.135Z" fill="#263238"/>
<mask id="mask0_1267_138318" style="mask-type:luminance" maskUnits="userSpaceOnUse" x="63" y="52" width="31" height="73">
<path d="M64.6413 68.7877L92.7755 52.5437C93.3065 52.2378 93.7391 52.4874 93.7391 53.1029V106.632C93.7211 106.966 93.6245 107.292 93.4571 107.582C93.2896 107.872 93.0561 108.119 92.7755 108.302L64.6413 124.546C64.1103 124.856 63.6777 124.606 63.6777 123.99V70.4617C63.6963 70.1267 63.7931 69.8008 63.9605 69.5101C64.1278 69.2194 64.361 68.9719 64.6413 68.7877Z" fill="white"/>
</mask>
<g mask="url(#mask0_1267_138318)">
<path d="M83.1133 80.7568C85.2058 80.894 85.8106 81.1753 87.2103 82.7227C88.4482 84.0872 93.639 89.4714 94.0364 90.2205C94.4338 90.9695 91.7786 93.1148 91.7786 93.1148L84.2633 86.0812L83.1133 80.7568Z" fill="#FFA8A7"/>
<path d="M74.4025 69.4874L72.8691 68.6645C72.918 68.5612 72.9874 68.4689 73.073 68.3933C73.1587 68.3176 73.2588 68.2601 73.3673 68.2242C73.4758 68.1884 73.5905 68.175 73.7043 68.1847C73.8182 68.1945 73.9289 68.2274 74.0297 68.2812C74.235 68.3958 74.3883 68.585 74.4577 68.8097C74.5271 69.0343 74.5073 69.277 74.4025 69.4874Z" fill="#263238"/>
<path d="M74.4275 69.038L73.9492 67.3675C74.0571 67.3294 74.1717 67.3136 74.2859 67.3212C74.4001 67.3287 74.5116 67.3594 74.6136 67.4114C74.7155 67.4633 74.8059 67.5355 74.8791 67.6235C74.9523 67.7115 75.0068 67.8134 75.0394 67.9232C75.1011 68.152 75.0719 68.3959 74.9578 68.6037C74.8437 68.8115 74.6537 68.9671 74.4275 69.038Z" fill="#263238"/>
<path d="M86.919 72.502C86.9224 73.5307 86.7218 74.5499 86.3288 75.5007C85.9359 76.4514 85.3583 77.3148 84.6296 78.0409L79.3157 78.2273L79.3333 80.2178C76.2034 80.2178 73.2071 77.334 73.2071 73.1842C73.1636 71.4021 73.8285 69.6755 75.0559 68.3827C76.2834 67.09 77.9733 66.3367 79.7553 66.2878C83.462 66.1894 86.817 68.8023 86.919 72.509V72.502Z" fill="#263238"/>
<path d="M88.5634 110.74L82.4161 114.288L81.1606 108.612C81.1606 108.612 80.8652 112.065 80.5276 115.378L73.7965 119.275C73.7156 117.805 73.5925 115.67 73.4096 113.296C73.058 108.556 72.5621 102.542 73.8563 99.0146L87.54 99.4331C87.744 101.645 88.2223 106.337 88.5634 110.74Z" fill="#90CAF9"/>
<g opacity="0.5">
<path d="M88.5634 110.74L82.6165 114.172L82.4161 114.288L81.1606 108.612C81.1606 108.612 80.8652 112.065 80.5276 115.378L73.7965 119.275C73.7156 117.805 73.5925 115.67 73.4096 113.296C73.058 108.556 72.5621 102.542 73.8563 99.0146L87.54 99.4331C87.744 101.645 88.2223 106.337 88.5634 110.74Z" fill="black"/>
</g>
<path opacity="0.5" d="M82.1695 106.966L81.9479 109.052L82.6161 114.172L82.4156 114.288L81.1602 108.612L81.3395 106.33C82.5871 106.359 83.8139 106.007 84.8563 105.32C84.159 106.141 83.2176 106.718 82.1695 106.966Z" fill="black"/>
<path d="M77.5172 81.4743C76.7755 81.5712 76.0412 81.718 75.3192 81.9139C76.4833 84.6569 74.9148 88.1843 74.9148 88.1843L76.4973 93.8287C75.0273 95.4851 74.4541 96.5788 73.8633 98.9983C74.855 100.145 80.9531 102.867 87.54 99.4309C87.54 99.4309 86.9386 95.1053 86.6819 92.5486C87.6701 88.4199 87.4275 87.5337 87.1426 86.4399C86.3478 83.3663 85.5038 82.8528 83.1124 80.7568H81.66L77.5172 81.4743Z" fill="#90CAF9"/>
<g opacity="0.1">
<path d="M75.5879 90.5859L78.8198 94.8834L76.4987 93.8284L75.5879 90.5859Z" fill="black"/>
</g>
<path d="M83.9712 69.1611C84.6921 69.5585 85.6171 71.3204 85.6311 75.0588C85.6311 78.2239 84.6394 79.0397 84.1295 79.2789C83.6195 79.518 82.6243 79.409 81.6501 79.2789V80.763C81.6501 80.763 83.4085 82.5002 83.3417 83.3724C83.2749 84.2446 81.1121 84.7017 79.8249 83.8823C78.9323 83.2518 78.1463 82.4825 77.4968 81.6035L77.3562 77.0633C77.3562 77.0633 76.8005 77.6295 75.8123 76.8136C74.9964 76.1384 74.6975 74.9744 75.3024 74.3273C75.461 74.1771 75.6524 74.0659 75.8615 74.0025C76.0706 73.9391 76.2916 73.9253 76.5069 73.9622C76.7222 73.999 76.926 74.0855 77.1021 74.2148C77.2782 74.3441 77.4218 74.5127 77.5214 74.7071C77.5214 74.7071 79.0653 74.7071 81.0874 73.536C81.8794 73.0863 82.5536 72.4554 83.0548 71.695C83.5561 70.9345 83.8701 70.0662 83.9712 69.1611Z" fill="#FFA8A7"/>
<path d="M81.6856 74.4679C81.6965 74.5727 81.6657 74.6776 81.5999 74.7598C81.5341 74.8421 81.4386 74.8951 81.334 74.9075C81.2804 74.9108 81.2266 74.9036 81.1759 74.8861C81.1251 74.8686 81.0783 74.8413 81.0381 74.8057C80.9979 74.7701 80.9651 74.7269 80.9417 74.6786C80.9182 74.6302 80.9045 74.5778 80.9014 74.5242C80.8977 74.472 80.9043 74.4196 80.9209 74.37C80.9374 74.3203 80.9636 74.2745 80.9979 74.2349C81.0322 74.1954 81.0739 74.1631 81.1207 74.1397C81.1675 74.1163 81.2185 74.1023 81.2707 74.0987C81.3228 74.095 81.3752 74.1016 81.4249 74.1181C81.4745 74.1347 81.5204 74.1609 81.5599 74.1952C81.5994 74.2294 81.6318 74.2712 81.6552 74.318C81.6785 74.3648 81.6925 74.4157 81.6962 74.4679H81.6856Z" fill="#263238"/>
<path d="M81.8613 77.1475L82.7967 77.4183C82.782 77.4811 82.7548 77.5403 82.7166 77.5923C82.6784 77.6443 82.6301 77.688 82.5746 77.7209C82.5191 77.7537 82.4575 77.775 82.3935 77.7835C82.3295 77.7919 82.2645 77.7873 82.2024 77.7699C82.0763 77.7301 81.9705 77.6431 81.9069 77.5271C81.8434 77.4112 81.827 77.2752 81.8613 77.1475Z" fill="#F28F8F"/>
<path d="M84.9167 73.1528L84.0938 72.6183C84.1258 72.5629 84.1688 72.5147 84.2202 72.4766C84.2716 72.4386 84.3303 72.4115 84.3926 72.3969C84.4549 72.3824 84.5195 72.3809 84.5824 72.3923C84.6453 72.4038 84.7052 72.428 84.7584 72.4636C84.8688 72.5357 84.9469 72.6478 84.9765 72.7763C85.006 72.9048 84.9845 73.0398 84.9167 73.1528Z" fill="#263238"/>
<path d="M80.9371 72.8109L80.3251 73.3771C80.226 73.2856 80.164 73.1608 80.151 73.0265C80.138 72.8922 80.175 72.7579 80.2548 72.6491C80.4236 72.5014 80.7261 72.5647 80.9371 72.8109Z" fill="#263238"/>
<path d="M84.7564 74.0951C84.7673 74.2003 84.7367 74.3055 84.6709 74.3884C84.6052 74.4712 84.5096 74.525 84.4047 74.5382C84.3223 74.5506 84.2381 74.538 84.163 74.5019C84.0879 74.4658 84.0254 74.408 83.9836 74.3358C83.9419 74.2637 83.9228 74.1807 83.9288 74.0976C83.9349 74.0145 83.9659 73.9352 84.0177 73.8699C84.0695 73.8046 84.1397 73.7565 84.2193 73.7317C84.2988 73.7069 84.384 73.7066 84.4637 73.7309C84.5434 73.7552 84.614 73.803 84.6662 73.8679C84.7184 73.9328 84.7498 74.012 84.7564 74.0951Z" fill="#263238"/>
<path d="M82.9512 73.7188L83.0004 76.3141L84.2489 75.8886L82.9512 73.7188Z" fill="#F28F8F"/>
<path d="M81.6496 79.2718C80.6297 79.1663 78.5161 78.6212 78.168 77.8018C78.3095 78.2179 78.576 78.5802 78.9311 78.8392C79.5712 79.3597 81.6531 79.9118 81.6531 79.9118L81.6496 79.2718Z" fill="#F28F8F"/>
<path d="M72.3623 100.738C72.6753 101.005 74.3 102.402 74.6447 102.577C75.3269 102.929 76.2624 103.527 77.9645 103.281C79.9902 102.968 80.3348 100.858 79.5752 100.78C78.7382 100.689 77.9131 100.51 77.1134 100.246C76.5543 100.049 76.3855 99.7711 76.505 99.7077C76.8692 99.6275 77.238 99.57 77.6093 99.5354C78.1368 99.4475 78.6045 99.0325 78.5834 98.7406C78.5623 98.4487 78.2564 98.5754 77.7148 98.5824C77.1732 98.5894 76.7231 98.4206 75.9564 98.4909C75.472 98.5632 74.9774 98.4729 74.5497 98.2342C73.8464 97.9494 70.4738 93.4655 70.4738 93.4655L74.9119 88.1903C75.6158 87.3135 76.0323 86.241 76.1046 85.119C76.177 83.997 75.9017 82.8799 75.3164 81.9199C73.9997 82.117 72.8142 82.8261 72.0176 83.8928C70.6637 85.6512 66.4576 92.3893 66.1059 92.8958C65.7543 93.4022 65.9336 94.1688 66.4576 94.8898C67.1997 95.8463 72.3623 100.738 72.3623 100.738Z" fill="#FFA8A7"/>
<path d="M72.3457 86.0132C74.6211 86.4141 76.4638 84.8948 76.4638 82.623V77.492C74.1885 77.0911 72.3457 78.6068 72.3457 80.8822V86.0132Z" fill="#263238"/>
</g>
<path d="M91.0645 92.4488C92.0667 93.4511 93.1323 94.5589 93.9834 94.5413C95.2776 94.5413 99.5293 85.9709 100.18 85.046C100.936 83.9593 101.625 83.1258 101.938 81.7719C102.057 81.2278 102.066 80.6656 101.965 80.118C101.864 79.5704 101.656 79.0483 101.351 78.5822C100.76 77.812 99.8142 77.7346 99.5926 78.7088C99.3977 79.6634 99.0957 80.593 98.6923 81.48C98.6255 81.2022 98.2 80.1612 97.6373 79.9221C97.0746 79.6829 96.934 80.1155 97.159 80.7661C97.3665 81.3428 97.3911 82.7988 97.6197 83.5338C97.7287 83.8854 93.0092 89.5791 93.0092 89.5791L91.0645 92.4488Z" fill="#FFA8A7"/>
<path d="M78.0101 53.3112C77.7722 53.3112 77.5441 53.2167 77.3759 53.0485C77.2078 52.8803 77.1133 52.6522 77.1133 52.4144V31.9222C77.1133 31.6843 77.2078 31.4562 77.3759 31.2881C77.5441 31.1199 77.7722 31.0254 78.0101 31.0254C78.2479 31.0254 78.476 31.1199 78.6442 31.2881C78.8124 31.4562 78.9068 31.6843 78.9068 31.9222V52.4144C78.9068 52.6522 78.8124 52.8803 78.6442 53.0485C78.476 53.2167 78.2479 53.3112 78.0101 53.3112Z" fill="#E0E0E0"/>
<path d="M87.6253 2.77086L84.5657 1.01247L84.4953 0.97027C82.1989 -0.327419 79.0514 -0.133995 75.5663 1.8776C72.3062 3.75555 69.331 6.89252 67.0873 10.5218C64.4955 14.7033 62.8672 19.5423 62.8672 23.8856C62.8672 27.9334 64.2739 30.7714 66.5739 32.1007L69.7038 33.8873C72.0178 35.3608 75.2849 35.2307 78.9107 33.1382C85.9267 29.0869 91.6168 19.2364 91.6168 11.1337C91.6379 6.9312 90.094 4.02283 87.6253 2.77086Z" fill="#37474F"/>
<path d="M69.6338 33.8478L66.5954 32.1141C64.3024 30.7847 62.8887 27.9432 62.8887 23.8989C62.8887 19.5627 64.5205 14.7236 67.1088 10.5352L70.4286 12.4729C67.8368 16.6508 66.2085 21.4829 66.2085 25.8155C66.2261 29.684 67.5203 32.4482 69.6338 33.8478Z" fill="#263238"/>
<path d="M87.5285 2.71786C85.2673 1.62062 82.2534 1.89845 78.93 3.81157C75.6665 5.70008 72.6913 8.84759 70.4265 12.4734L67.082 10.5356C69.3257 6.90282 72.3009 3.76937 75.561 1.89142C79.0602 -0.123695 82.2077 -0.296017 84.4936 0.980571L84.5428 1.0087L87.5285 2.71786Z" fill="#455A64"/>
<path d="M73.7828 31.921C72.9355 31.9385 72.1012 31.7101 71.3809 31.2634L71.3387 31.2388L71.2754 31.2036C69.735 30.1486 68.8945 28.0069 68.8945 25.1688C68.8945 21.6521 70.2168 17.4812 72.5274 13.7569C74.5319 10.5144 77.0992 7.8839 79.7649 6.34003C81.3298 5.43974 82.8596 4.97904 84.1855 4.97904C84.8635 4.9687 85.5353 5.1105 86.1513 5.39402L86.2463 5.44326C88.0398 6.3541 89.0597 8.64352 89.0597 11.7312C89.0597 18.6523 84.1855 27.096 78.1894 30.5565C76.6349 31.4463 75.1087 31.921 73.7828 31.921Z" fill="#FAFAFA"/>
<path d="M85.1779 22.0252C84.661 20.3688 84.2495 19.4193 83.62 18.8601C82.6775 18.0232 81.0176 18.2482 81.0176 18.2482L81.7209 21.6806L83.0186 26.0027C83.1351 26.0205 83.2525 26.0311 83.3703 26.0344C84.1523 25.0894 84.8668 24.0905 85.5085 23.0451C85.3924 22.6899 85.2729 22.3347 85.1779 22.0252Z" fill="#90CAF9"/>
<path d="M84.1808 25.0246C84.1597 23.5229 84.1421 22.2639 84.1421 21.7786C84.1421 21.7083 84.1421 21.6379 84.1421 21.5641C84.1085 21.037 83.9584 20.524 83.7025 20.0619C83.4467 19.5999 83.0915 19.2004 82.6625 18.8923C82.2336 18.5841 81.7417 18.375 81.2221 18.2799C80.7026 18.1849 80.1685 18.2063 79.6583 18.3427L77.8366 18.8104L76.0114 19.3977C75.5687 19.5932 75.2203 19.9542 75.0407 20.4035C74.8369 20.9596 74.738 21.5487 74.7488 22.1408V26.0796L74.7031 31.8401C75.9379 31.6252 77.1221 31.1828 78.1953 30.5353C80.5386 29.1167 82.5738 27.2429 84.1808 25.0246Z" fill="#F0F0F0"/>
<path d="M81.1689 14.8475C82.6935 14.8475 83.9295 13.6115 83.9295 12.0868C83.9295 10.5622 82.6935 9.32617 81.1689 9.32617C79.6442 9.32617 78.4082 10.5622 78.4082 12.0868C78.4082 13.6115 79.6442 14.8475 81.1689 14.8475Z" fill="#263238"/>
<path d="M76.4062 14.0488C76.5724 14.88 76.7825 15.7017 77.0357 16.5106C77.1561 16.7143 77.3479 16.866 77.5738 16.9361L77.5422 15.4591L76.4062 14.0488Z" fill="#263238"/>
<path d="M76.9581 11.0383C76.8016 11.0214 76.6433 11.0399 76.4948 11.0922C76.3463 11.1446 76.2114 11.2295 76.1 11.3407C75.7483 11.717 75.9383 12.8951 76.3954 14.0486L77.2395 14.1471L76.9581 11.0383Z" fill="#263238"/>
<path d="M77.4929 14.1476C77.3241 14.2496 77.0814 13.9261 76.8739 13.7081C76.7924 13.614 76.6882 13.5424 76.5712 13.4999C76.4542 13.4574 76.3284 13.4454 76.2055 13.4651C76.0826 13.4848 75.9668 13.5356 75.869 13.6126C75.7712 13.6895 75.6946 13.7902 75.6466 13.905C75.2949 14.633 75.9455 15.5966 76.4801 15.7654C77.405 16.0537 77.5351 15.4629 77.5351 15.4629L77.6019 18.8918C78.7519 20.3653 81.9346 20.2387 80.6087 18.7019V17.689C81.0203 17.7546 81.4376 17.7758 81.8537 17.7523C82.5324 17.6504 82.9579 17.1123 83.1654 16.3773C83.496 15.1992 83.6191 14.2461 83.3413 11.9251C83.0318 9.38242 80.0742 9.35781 78.4776 10.3601C76.881 11.3624 77.4929 14.1476 77.4929 14.1476Z" fill="#B16668"/>
<path d="M77.4916 14.4321C77.4072 14.4321 77.0837 13.8976 76.8727 13.7077C76.5808 13.4404 76.9571 11.0384 76.9571 11.0384C76.8803 10.8308 76.866 10.6053 76.916 10.3896C76.966 10.174 77.0781 9.97776 77.2384 9.82515C77.6358 9.38556 78.0719 9.1218 79.2219 9.04795C79.8971 9.01278 80.9803 9.11828 81.5816 9.15697C82.7176 9.23434 83.136 8.95651 83.7902 8.77012C84.2896 8.63297 84.3458 10.4336 83.0868 11.0314C82.6219 11.2636 82.1145 11.3988 81.5957 11.4288C80.5974 11.503 79.5943 11.4842 78.5994 11.3725C78.2864 11.3303 78.2196 11.6328 78.0508 12.4627C77.8996 13.1907 77.7765 14.4251 77.4916 14.4321Z" fill="#263238"/>
<path d="M76.9574 11.2279L75.9375 10.6793C75.97 10.6103 76.0162 10.5487 76.0732 10.4981C76.1302 10.4475 76.197 10.4091 76.2693 10.3851C76.3417 10.3611 76.4181 10.352 76.4941 10.3585C76.5701 10.3649 76.6439 10.3867 76.7112 10.4226C76.8482 10.4992 76.9503 10.6257 76.9961 10.7758C77.042 10.9259 77.0281 11.0878 76.9574 11.2279Z" fill="#263238"/>
<path d="M80.6263 17.6887C79.9287 17.5559 79.2447 17.3593 78.5831 17.1014C78.2706 16.9408 78.0151 16.6879 77.8516 16.377C77.9309 16.6869 78.0721 16.9775 78.2665 17.2315C78.6534 17.7274 80.6263 18.0931 80.6263 18.0931V17.6887Z" fill="#9A4A4D"/>
<path d="M80.5393 13.771C80.5393 13.8526 80.5069 13.9309 80.4492 13.9886C80.3915 14.0463 80.3132 14.0787 80.2316 14.0787C80.15 14.0787 80.0717 14.0463 80.014 13.9886C79.9563 13.9309 79.9239 13.8526 79.9239 13.771C79.923 13.7302 79.9302 13.6897 79.9451 13.6518C79.9601 13.6138 79.9825 13.5793 80.011 13.5501C80.0395 13.5209 80.0735 13.4978 80.1111 13.482C80.1487 13.4661 80.1891 13.458 80.2299 13.458C80.2708 13.458 80.3113 13.4661 80.3491 13.4819C80.3869 13.4977 80.4212 13.5208 80.45 13.5499C80.4787 13.579 80.5015 13.6135 80.5168 13.6515C80.5322 13.6894 80.5398 13.7301 80.5393 13.771Z" fill="#263238"/>
<path d="M80.2141 12.6251L79.567 12.9768C79.5209 12.8877 79.511 12.7843 79.5391 12.6881C79.5673 12.5918 79.6314 12.5101 79.7182 12.4598C79.7611 12.4355 79.8086 12.4205 79.8576 12.4157C79.9067 12.4109 79.9562 12.4165 80.0029 12.4321C80.0497 12.4477 80.0926 12.4729 80.129 12.5062C80.1654 12.5394 80.1944 12.58 80.2141 12.6251Z" fill="#263238"/>
<path d="M80.4752 15.8809L81.1786 16.1411C81.1649 16.1886 81.1415 16.2327 81.1097 16.2705C81.0779 16.3084 81.0384 16.3391 80.994 16.3606C80.9495 16.3822 80.901 16.3941 80.8516 16.3957C80.8022 16.3973 80.7531 16.3884 80.7073 16.3697C80.613 16.334 80.5361 16.2632 80.4928 16.172C80.4495 16.0809 80.4432 15.9765 80.4752 15.8809Z" fill="#9A4A4D"/>
<path d="M83.1588 12.8743L82.5645 12.4207C82.5914 12.3793 82.6267 12.3441 82.6681 12.3172C82.7095 12.2904 82.7561 12.2726 82.8049 12.265C82.8537 12.2573 82.9035 12.2601 82.9511 12.273C82.9988 12.2858 83.0432 12.3086 83.0814 12.3398C83.16 12.4023 83.2118 12.4924 83.2262 12.5917C83.2405 12.6911 83.2164 12.7922 83.1588 12.8743Z" fill="#263238"/>
<path d="M82.975 13.6827C82.9729 13.7429 82.9532 13.8011 82.9181 13.8501C82.8831 13.8991 82.8344 13.9366 82.7782 13.9581C82.7219 13.9795 82.6606 13.9839 82.6019 13.9706C82.5431 13.9574 82.4896 13.9271 82.448 13.8835C82.4064 13.84 82.3786 13.7852 82.368 13.7259C82.3575 13.6666 82.3646 13.6056 82.3886 13.5504C82.4126 13.4951 82.4523 13.4482 82.5028 13.4154C82.5533 13.3827 82.6124 13.3656 82.6726 13.3662C82.7132 13.3671 82.7533 13.3761 82.7905 13.3925C82.8277 13.4089 82.8613 13.4324 82.8894 13.4618C82.9175 13.4912 82.9395 13.5259 82.9542 13.5638C82.9689 13.6017 82.976 13.6421 82.975 13.6827Z" fill="#263238"/>
<path d="M81.4277 13.3945L81.5262 15.2197L82.4792 14.8962L81.4277 13.3945Z" fill="#9A4A4D"/>
<path d="M76.836 22.4127C76.8747 21.4491 76.9098 20.1268 76.3436 19.5993C75.1339 18.9944 74.0226 20.5945 73.6181 22.5991C73.284 24.2555 72.6545 27.6034 73.1856 29.8471C73.4505 30.5746 73.7973 31.2695 74.2195 31.9185C75.0911 31.8371 75.9444 31.6187 76.7481 31.2714C76.3759 30.6336 76.0942 29.9471 75.9111 29.2317C75.7634 27.6773 76.7903 23.5838 76.836 22.4127Z" fill="#B16668"/>
<path d="M76.8963 19.1167C76.3195 19.0745 74.8108 19.1167 74.0231 20.5797C73.3197 21.8773 72.7113 24.6521 72.7289 26.3085C72.7289 26.3085 74.8003 26.9837 76.3969 26.8254C76.7486 24.958 77.0123 23.9347 77.2268 22.2888C77.4414 20.643 77.2233 19.5528 76.8963 19.1167Z" fill="#90CAF9"/>
<path d="M36.314 110.285C36.1165 110.285 35.9247 110.22 35.7681 110.099C35.6116 109.979 35.4992 109.81 35.4483 109.62C35.3974 109.429 35.4109 109.227 35.4866 109.044C35.5624 108.862 35.6962 108.71 35.8674 108.611L60.1507 94.6814C60.2529 94.6186 60.3667 94.577 60.4853 94.559C60.6039 94.541 60.7249 94.5469 60.8411 94.5765C60.9574 94.6061 61.0665 94.6588 61.1621 94.7313C61.2576 94.8038 61.3377 94.8948 61.3974 94.9988C61.4572 95.1028 61.4955 95.2177 61.5101 95.3368C61.5246 95.4559 61.5151 95.5767 61.4822 95.692C61.4492 95.8074 61.3934 95.9149 61.3182 96.0083C61.2429 96.1017 61.1496 96.1791 61.0439 96.2358L36.7782 110.166C36.6372 110.247 36.4767 110.288 36.314 110.285Z" fill="#E0E0E0"/>
<path d="M34.5016 50.6975C34.3197 50.6981 34.142 50.6435 33.9919 50.5408C33.8418 50.4381 33.7265 50.2922 33.6612 50.1224C33.596 49.9526 33.5839 49.767 33.6266 49.5902C33.6693 49.4135 33.7647 49.2538 33.9002 49.1325L63.7471 22.3066C63.834 22.2242 63.9365 22.16 64.0486 22.1179C64.1606 22.0758 64.28 22.0565 64.3997 22.0613C64.5193 22.066 64.6368 22.0947 64.7452 22.1455C64.8536 22.1964 64.9507 22.2685 65.0308 22.3575C65.1109 22.4465 65.1723 22.5507 65.2115 22.6638C65.2507 22.777 65.2668 22.8968 65.259 23.0163C65.2511 23.1358 65.2194 23.2525 65.1657 23.3595C65.112 23.4665 65.0374 23.5617 64.9463 23.6394L35.11 50.4583C34.9453 50.613 34.7275 50.6986 34.5016 50.6975Z" fill="#E0E0E0"/>
<path d="M60.2786 74.3788C60.1653 74.38 60.0529 74.3585 59.9481 74.3155L32.679 63.5331C32.5648 63.4934 32.4597 63.4311 32.3702 63.3498C32.2807 63.2686 32.2085 63.17 32.158 63.0601C32.1075 62.9502 32.0798 62.8313 32.0765 62.7104C32.0732 62.5895 32.0944 62.4692 32.1387 62.3567C32.1831 62.2442 32.2498 62.1419 32.3347 62.0558C32.4197 61.9698 32.5212 61.9018 32.6331 61.856C32.745 61.8101 32.865 61.7874 32.9859 61.7892C33.1068 61.7909 33.2261 61.8171 33.3367 61.8661L60.6092 72.6486C60.8031 72.7255 60.964 72.8677 61.0644 73.0505C61.1648 73.2333 61.1983 73.4455 61.1591 73.6503C61.12 73.8552 61.0106 74.04 60.8499 74.173C60.6892 74.3059 60.4872 74.3787 60.2786 74.3788Z" fill="#E0E0E0"/>
<path d="M33.5544 96.6616L30.3893 94.8399L30.3401 94.8082C27.9803 93.4754 24.7414 93.6723 21.1543 95.7437C17.7993 97.6779 14.7397 100.903 12.4327 104.638C9.76344 108.939 8.08594 113.918 8.08594 118.381C8.08594 122.545 9.54188 125.467 11.9016 126.821L15.1195 128.661C17.5003 130.176 20.8624 130.043 24.5937 127.891C31.8136 123.723 37.6655 113.584 37.6655 105.25C37.6831 100.941 36.0935 97.9487 33.5544 96.6616Z" fill="#37474F"/>
<path d="M15.0456 128.64L11.9157 126.853C9.55946 125.489 8.10352 122.563 8.10352 118.413C8.10352 113.95 9.78102 108.974 12.4502 104.673L15.8932 106.667C13.2239 110.964 11.5535 115.937 11.5535 120.382C11.5394 124.353 12.8687 127.198 15.0456 128.64Z" fill="#263238"/>
<path d="M33.4588 96.608C31.1307 95.4792 28.0219 95.764 24.6106 97.7334C21.2521 99.6747 18.189 102.907 15.8785 106.645L12.4355 104.651C14.7425 100.913 17.8057 97.6877 21.1571 95.7535C24.7443 93.6821 27.9832 93.4851 30.3465 94.818L30.3957 94.8497L33.4588 96.608Z" fill="#455A64"/>
<path d="M19.3138 126.659C18.4454 126.675 17.5909 126.44 16.852 125.984L16.8098 125.956L16.743 125.917C15.1569 124.831 14.2812 122.633 14.2812 119.714C14.2812 116.081 15.6458 111.801 18.0196 107.968C20.0839 104.634 22.7285 101.926 25.4681 100.34C27.0788 99.4113 28.6332 98.933 30.0153 98.933C30.7125 98.9238 31.4031 99.0691 32.0374 99.3586L32.1359 99.4113C33.9822 100.347 35.0408 102.707 35.0408 105.882C35.0408 113 30.0223 121.69 23.8539 125.249C22.2467 126.163 20.6783 126.659 19.3138 126.659Z" fill="#FAFAFA"/>
<path d="M29.9537 114.151C28.9972 112.885 26.9258 113.141 26.9258 113.141C27.1572 113.711 27.3395 114.299 27.4709 114.9C27.8542 116.827 28.1496 121.286 28.1496 121.286C28.2278 121.357 28.3113 121.422 28.3993 121.48C29.4465 120.33 30.3881 119.088 31.2127 117.77C30.9982 116.06 30.5938 114.998 29.9537 114.151Z" fill="#455A64"/>
<path d="M24.1293 106.613C24.1225 106.995 24.1972 107.375 24.3485 107.726C24.4998 108.077 24.7242 108.392 25.0067 108.649C25.2892 108.907 25.6234 109.101 25.987 109.219C26.3505 109.338 26.7351 109.377 27.1151 109.335C27.9236 109.253 28.6738 108.877 29.224 108.279C29.7741 107.681 30.0861 106.902 30.1008 106.089C30.1076 105.707 30.0328 105.327 29.8816 104.976C29.7303 104.625 29.506 104.31 29.2235 104.052C28.9411 103.794 28.607 103.599 28.2434 103.481C27.8799 103.362 27.4952 103.322 27.1151 103.364C26.3063 103.447 25.556 103.823 25.0059 104.422C24.4558 105.021 24.144 105.8 24.1293 106.613Z" fill="#263238"/>
<path d="M29.8083 119.812C29.7661 118.324 29.7063 117.093 29.6359 116.612C29.2174 113.837 27.8776 112.951 26.5166 113.172L23.2706 113.921L22.1241 114.224C21.6703 114.347 21.2587 114.591 20.9334 114.931C20.6081 115.27 20.3815 115.692 20.2778 116.151C20.1621 116.681 20.1043 117.222 20.1055 117.765V126.599C21.4315 126.401 22.7054 125.943 23.8544 125.252C26.1727 123.842 28.1948 121.994 29.8083 119.812Z" fill="#90CAF9"/>
<path d="M21.9551 108.91C21.9551 108.91 22.4369 111.14 22.6338 111.499C22.6983 111.606 22.7843 111.7 22.8866 111.773C22.9889 111.846 23.1051 111.898 23.2282 111.924L23.193 110.331L21.9551 108.91Z" fill="#263238"/>
<path d="M22.5612 105.601C22.3867 105.598 22.2136 105.633 22.0539 105.703C21.8943 105.774 21.7518 105.878 21.6363 106.009C21.2389 106.452 21.4604 107.707 21.9563 108.91L22.8671 108.935L22.5612 105.601Z" fill="#263238"/>
<path d="M23.1415 108.914C22.9586 109.037 22.6984 108.71 22.4698 108.496C22.3707 108.402 22.2499 108.336 22.1183 108.301C21.9867 108.267 21.8486 108.266 21.7167 108.299C21.5847 108.332 21.4632 108.398 21.3631 108.49C21.263 108.582 21.1877 108.697 21.144 108.826C20.7712 109.646 21.4675 110.627 22.0478 110.757C23.043 110.982 23.1942 110.331 23.1942 110.331L23.2716 113.922C23.492 114.386 23.8333 114.782 24.2597 115.069C24.6861 115.355 25.1818 115.522 25.6947 115.55C27.4531 115.635 27.1014 114.207 26.5176 113.546V112.448C26.967 112.482 27.4187 112.465 27.8645 112.399C28.5995 112.223 29.0602 111.604 29.2712 110.789C29.6229 109.48 29.7636 108.439 29.4611 105.957C29.1306 103.235 25.9444 103.495 24.186 104.726C22.4276 105.957 23.1415 108.914 23.1415 108.914Z" fill="#FFA8A7"/>
<path d="M23.1401 109.22C23.0452 109.22 22.697 108.682 22.4684 108.495C22.1554 108.235 22.5599 105.601 22.5599 105.601C22.4773 105.372 22.4623 105.124 22.5165 104.886C22.5707 104.649 22.692 104.432 22.8658 104.261C23.2984 103.748 24.0193 103.632 25.2502 103.333C25.8973 103.175 26.8784 102.907 27.522 102.731C28.2922 102.52 28.9287 102.313 29.4738 102.731C29.6903 102.907 29.8443 103.147 29.9128 103.417C29.9812 103.687 29.9605 103.972 29.8536 104.23C29.7985 104.357 29.725 104.475 29.6356 104.581C29.4881 104.768 29.2974 104.917 29.0799 105.014C29.0799 105.014 28.7283 105.341 27.5748 105.584C26.5046 105.76 25.4201 105.834 24.3358 105.805C23.9841 105.805 23.9244 106.125 23.7415 107.039C23.5797 107.841 23.4461 109.188 23.1401 109.22Z" fill="#263238"/>
<path d="M22.5652 105.805L21.4609 105.309C21.5271 105.153 21.6516 105.029 21.808 104.963C21.9643 104.897 22.1401 104.895 22.2979 104.957C22.3717 104.995 22.4372 105.047 22.4907 105.11C22.5442 105.173 22.5846 105.246 22.6095 105.325C22.6344 105.404 22.6433 105.487 22.6357 105.569C22.6281 105.652 22.6041 105.732 22.5652 105.805Z" fill="#263238"/>
<path d="M26.5131 112.449C25.7646 112.373 25.0251 112.225 24.3046 112.009C23.9705 111.867 23.6916 111.62 23.5098 111.306C23.5959 111.628 23.7493 111.929 23.9599 112.188C24.3784 112.688 26.5131 112.892 26.5131 112.892V112.449Z" fill="#F28F8F"/>
<path d="M26.1155 108.242C26.1161 108.333 26.0831 108.422 26.0227 108.49C25.9623 108.558 25.8789 108.601 25.7885 108.612C25.7458 108.615 25.7029 108.61 25.6626 108.595C25.6223 108.581 25.5854 108.558 25.5545 108.529C25.5236 108.499 25.4993 108.463 25.4833 108.424C25.4672 108.384 25.4598 108.341 25.4614 108.299C25.4566 108.207 25.4882 108.116 25.5494 108.047C25.6105 107.978 25.6964 107.936 25.7885 107.929C25.831 107.926 25.8737 107.932 25.9137 107.947C25.9538 107.961 25.9904 107.984 26.0212 108.014C26.052 108.043 26.0763 108.079 26.0925 108.118C26.1088 108.157 26.1166 108.2 26.1155 108.242Z" fill="#263238"/>
<path d="M25.7654 107.033L25.0621 107.483C25.013 107.385 25.0024 107.272 25.0323 107.166C25.0622 107.06 25.1305 106.969 25.2238 106.91C25.2664 106.879 25.3151 106.858 25.3666 106.847C25.4181 106.837 25.4713 106.837 25.5225 106.849C25.5738 106.861 25.622 106.883 25.6639 106.915C25.7058 106.947 25.7404 106.987 25.7654 107.033Z" fill="#263238"/>
<path d="M26.3659 110.482L27.115 110.697C27.083 110.802 27.0127 110.89 26.9181 110.945C26.8235 111 26.7116 111.017 26.605 110.992C26.5552 110.975 26.5093 110.949 26.4701 110.914C26.4308 110.879 26.3991 110.836 26.3768 110.788C26.3544 110.741 26.342 110.689 26.3401 110.636C26.3382 110.584 26.347 110.532 26.3659 110.482Z" fill="#F28F8F"/>
<path d="M29.0483 107.019L28.4082 106.583C28.4642 106.491 28.5542 106.426 28.6584 106.401C28.7626 106.376 28.8724 106.393 28.9639 106.449C29.0497 106.514 29.1066 106.61 29.1224 106.717C29.1381 106.823 29.1115 106.932 29.0483 107.019Z" fill="#263238"/>
<path d="M28.8533 107.911C28.8496 107.999 28.8142 108.083 28.7535 108.148C28.6928 108.213 28.6109 108.253 28.5228 108.262C28.48 108.266 28.4369 108.261 28.3963 108.247C28.3557 108.233 28.3186 108.21 28.2876 108.181C28.2565 108.151 28.2322 108.115 28.2164 108.075C28.2005 108.035 28.1935 107.992 28.1957 107.949C28.2007 107.862 28.2361 107.779 28.2958 107.715C28.3556 107.65 28.4358 107.609 28.5228 107.598C28.5656 107.594 28.6086 107.6 28.6491 107.614C28.6896 107.628 28.7267 107.651 28.7578 107.68C28.789 107.71 28.8136 107.746 28.8301 107.785C28.8466 107.825 28.8545 107.868 28.8533 107.911Z" fill="#263238"/>
<path d="M27.1797 107.746L27.2887 109.708L28.3191 109.269L27.1797 107.746Z" fill="#F28F8F"/>
<path d="M21.094 120.185C22.2932 119.257 23.5557 115.068 21.7481 114.361C20.0319 114.713 18.7835 117.052 16.9161 124.134C16.803 124.722 16.7441 125.319 16.7402 125.917L16.8 125.953L16.8422 125.981C17.5811 126.437 18.4356 126.672 19.304 126.656H19.4692C19.4873 126.301 19.5332 125.948 19.6064 125.601L21.094 120.185Z" fill="#FFA8A7"/>
<path d="M22.1249 114.224C22.3626 114.416 22.5531 114.66 22.6818 114.938C22.8104 115.215 22.8737 115.518 22.867 115.824C22.9162 116.974 22.3746 118.683 22.0476 119.752C21.7205 120.821 21.0382 122.766 21.0382 122.766C21.0382 122.766 18.2248 122.688 17.5742 121.088C17.5742 121.088 18.8965 116.699 20.1696 115.198C20.4045 114.902 20.7013 114.662 21.0391 114.494C21.377 114.325 21.7476 114.233 22.1249 114.224Z" fill="#455A64"/>
<path d="M22.887 96.9149C22.6488 96.914 22.4208 96.8187 22.2527 96.65C22.0846 96.4812 21.9902 96.2528 21.9902 96.0146V70.0608C21.9902 69.823 22.0847 69.5949 22.2529 69.4267C22.4211 69.2585 22.6492 69.1641 22.887 69.1641C23.1249 69.1641 23.353 69.2585 23.5211 69.4267C23.6893 69.5949 23.7838 69.823 23.7838 70.0608V96.0146C23.7838 96.2528 23.6894 96.4812 23.5213 96.65C23.3533 96.8187 23.1252 96.914 22.887 96.9149Z" fill="#E0E0E0"/>
<path d="M33.8223 45.274L31.1425 43.7231L31.1003 43.6985C29.0887 42.5661 26.3351 42.7314 23.2825 44.4933C20.4304 46.1391 17.8245 48.8857 15.8621 52.0649C13.5938 55.7223 12.166 59.96 12.166 63.7546C12.166 67.296 13.4039 69.7824 15.4085 70.9464L18.148 72.5079C20.1737 73.7985 23.0328 73.686 26.2085 71.8537C32.3488 68.3088 37.3285 59.6822 37.3285 52.5924C37.332 48.9174 35.9816 46.3712 33.8223 45.274Z" fill="#90CAF9"/>
<path opacity="0.1" d="M18.0691 72.4789L15.4104 70.9597C13.4059 69.7956 12.168 67.3093 12.168 63.7679C12.168 59.9698 13.5747 55.7391 15.8641 52.0781L18.7936 53.7732C16.5217 57.4342 15.101 61.6613 15.101 65.4559C15.0869 68.832 16.2193 71.2551 18.0691 72.4789Z" fill="black"/>
<path opacity="0.4" d="M33.7379 45.2276C31.7579 44.2676 29.1133 44.5243 26.212 46.1842C23.3106 47.8441 20.7469 50.5872 18.781 53.7664L15.8516 52.0713C17.8139 48.9062 20.4234 46.149 23.272 44.5032C26.3245 42.7448 29.0817 42.5725 31.0897 43.7049L31.1319 43.7295L33.7379 45.2276Z" fill="white"/>
<path d="M21.703 70.7961C20.9585 70.8133 20.2251 70.6128 19.5929 70.2194L19.5577 70.1983L19.5015 70.1666C18.151 69.2382 17.416 67.3532 17.416 64.8914C17.416 61.8002 18.5766 58.1603 20.5811 54.9003C22.3395 52.0623 24.5867 49.7588 26.9113 48.4083C28.0763 47.6818 29.4083 47.2665 30.7797 47.2021C31.3732 47.1894 31.962 47.3095 32.503 47.5538L32.5839 47.596C34.1558 48.3908 35.0456 50.4094 35.0456 53.0997C35.0456 59.1591 30.7762 66.5514 25.5292 69.5793C24.3785 70.3048 23.0613 70.7237 21.703 70.7961Z" fill="#FAFAFA"/>
<path d="M31.4556 62.9003C31.3044 62.3411 31.1989 61.6518 30.9914 61.1173C30.7839 60.5827 30.3373 60.1924 29.2822 60.1924C28.7512 60.4245 28.8145 63.0445 28.8321 63.4524C28.8532 63.9342 29.2189 65.049 29.648 66.1779C30.3759 65.3546 31.0424 64.4789 31.642 63.5579L31.4556 62.9003Z" fill="#B16668"/>
<path d="M30.9205 64.5925C31.0632 63.9089 30.997 63.1982 30.7306 62.5527C30.4041 61.6802 29.9121 60.8789 29.2817 60.193C29.2817 60.193 28.8316 60.1719 28.1985 60.193L25.2937 60.5446L23.3032 60.8963C24.7627 63.5198 23.2258 65.3872 23.152 65.5174L23.2786 65.8233L24.3793 68.802C23.8707 69.3481 23.4388 69.961 23.0957 70.6237C23.9609 70.3984 24.7897 70.0515 25.5574 69.5933C27.6683 68.3107 29.4936 66.6086 30.9205 64.5925Z" fill="#37474F"/>
<path d="M23.7227 67.0195L25.6323 69.3054L24.3803 68.7955L23.7227 67.0195Z" fill="#263238"/>
<path d="M23.1484 65.5097C24.119 64.7571 24.7767 61.4619 23.2996 60.8887C21.4252 61.2403 21.2775 62.9741 19.7829 68.7065C19.6878 69.2085 19.6396 69.7183 19.6387 70.2292C20.2649 70.6116 20.987 70.8079 21.7206 70.7954H21.8542C21.8684 70.4973 21.9072 70.2009 21.9703 69.9092L23.1484 65.5097Z" fill="#B16668"/>
<path d="M31.285 59.5947L27.6803 59.9112C27.0741 59.9772 26.4607 59.9134 25.881 59.724C25.3013 59.5346 24.7685 59.224 24.3181 58.8129C23.8677 58.4017 23.51 57.8994 23.2687 57.3393C23.0274 56.7793 22.908 56.1742 22.9186 55.5645C22.9394 54.4259 23.3768 53.3344 24.148 52.4965C24.9191 51.6586 25.9706 51.1324 27.1036 51.0173C27.6359 50.9593 28.1744 51.0153 28.6834 51.1815C29.1923 51.3477 29.6601 51.6203 30.0556 51.9812C30.4512 52.3421 30.7653 52.7831 30.9773 53.2748C31.1893 53.7665 31.2941 54.2976 31.285 54.833V59.5947Z" fill="#263238"/>
<path d="M29.7928 52.6025C30.2359 52.8241 30.781 53.8897 30.7282 56.2213C30.6825 58.2012 30.0249 58.7428 29.7189 58.9116C29.413 59.0804 28.7799 59.0488 28.1786 59.0031V60.1917C28.1786 60.1917 29.0085 61.085 28.9558 61.6336C28.903 62.1822 27.7566 62.4108 26.9758 61.9466C26.4129 61.5598 25.9264 61.0722 25.541 60.5082V57.7827C25.541 57.7827 25.1893 58.159 24.5844 57.6843C24.0886 57.2939 23.9198 56.5765 24.3066 56.151C24.3959 56.0483 24.5089 55.9688 24.6357 55.9194C24.7625 55.87 24.8995 55.8521 25.0347 55.8674C25.17 55.8826 25.2996 55.9304 25.4122 56.0068C25.5249 56.0831 25.6174 56.1857 25.6817 56.3057C26.4866 56.1999 27.2547 55.9033 27.9218 55.4406C28.4222 55.1331 28.8491 54.7196 29.1724 54.2293C29.4956 53.7389 29.7074 53.1836 29.7928 52.6025Z" fill="#B16668"/>
<path d="M28.5216 55.9196C28.5243 55.9886 28.5019 56.0562 28.4586 56.1098C28.4153 56.1635 28.3539 56.1997 28.286 56.2115C28.2538 56.2155 28.2212 56.2126 28.1901 56.2032C28.1591 56.1937 28.1305 56.1779 28.1059 56.1567C28.0814 56.1355 28.0616 56.1094 28.0478 56.0801C28.034 56.0507 28.0265 56.0189 28.0257 55.9864C28.0223 55.9177 28.0445 55.8502 28.0881 55.7969C28.1316 55.7437 28.1933 55.7084 28.2614 55.6981C28.2934 55.693 28.3262 55.6949 28.3575 55.7037C28.3887 55.7125 28.4177 55.728 28.4424 55.749C28.4671 55.7701 28.487 55.7962 28.5007 55.8257C28.5144 55.8551 28.5215 55.8872 28.5216 55.9196Z" fill="#263238"/>
<g style="mix-blend-mode:multiply" opacity="0.5">
<path d="M28.5781 57.5859L29.1549 57.7196C29.134 57.7996 29.0836 57.8688 29.0138 57.9132C28.944 57.9576 28.8599 57.9738 28.7786 57.9587C28.7401 57.9487 28.7041 57.9309 28.6728 57.9064C28.6416 57.8819 28.6157 57.8511 28.5969 57.8161C28.5781 57.7811 28.5667 57.7426 28.5635 57.703C28.5602 57.6634 28.5652 57.6235 28.5781 57.5859Z" fill="#9A4A4D"/>
</g>
<path d="M30.5576 54.9807L30.0547 54.6747C30.0729 54.6381 30.0985 54.6056 30.1299 54.5794C30.1613 54.5532 30.1979 54.5337 30.2372 54.5224C30.2765 54.511 30.3177 54.5079 30.3583 54.5133C30.3988 54.5187 30.4378 54.5325 30.4728 54.5538C30.5078 54.575 30.5379 54.6033 30.5614 54.6369C30.5848 54.6704 30.601 54.7085 30.609 54.7486C30.617 54.7887 30.6165 54.8301 30.6077 54.87C30.5988 54.91 30.5818 54.9477 30.5576 54.9807Z" fill="#263238"/>
<path d="M30.4415 55.5714C30.445 55.6405 30.4229 55.7085 30.3795 55.7624C30.336 55.8162 30.2742 55.8522 30.2059 55.8633C30.1736 55.8678 30.1408 55.8654 30.1095 55.8562C30.0783 55.8469 30.0494 55.8311 30.0247 55.8098C30.0001 55.7885 29.9803 55.7622 29.9666 55.7326C29.953 55.703 29.9458 55.6708 29.9457 55.6382C29.9423 55.5695 29.9645 55.502 30.008 55.4487C30.0515 55.3955 30.1133 55.3602 30.1813 55.3499C30.2133 55.3454 30.2458 55.3477 30.2768 55.3568C30.3078 55.3658 30.3366 55.3813 30.3612 55.4022C30.3857 55.4231 30.4056 55.449 30.4195 55.4782C30.4333 55.5074 30.4408 55.5391 30.4415 55.5714Z" fill="#263238"/>
<g style="mix-blend-mode:multiply" opacity="0.5">
<path d="M29.2695 55.5332L29.3082 57.0243L30.096 56.7113L29.2695 55.5332Z" fill="#9A4A4D"/>
</g>
<g style="mix-blend-mode:multiply" opacity="0.5">
<path d="M28.1765 59.0046C27.5399 58.9764 26.2352 58.7162 26.0312 58.2168C26.1101 58.4685 26.2711 58.6864 26.4884 58.8357C26.8788 59.1347 28.1765 59.3984 28.1765 59.3984V59.0046Z" fill="#9A4A4D"/>
</g>
<path d="M23.5843 53.4269L22.6172 52.9908C22.6748 52.8542 22.7837 52.7456 22.9204 52.6884C23.0572 52.6312 23.211 52.6299 23.3487 52.6848C23.4137 52.7171 23.4716 52.7622 23.5189 52.8174C23.5661 52.8726 23.6018 52.9367 23.6238 53.0059C23.6458 53.0751 23.6536 53.1481 23.6468 53.2204C23.64 53.2927 23.6188 53.3629 23.5843 53.4269Z" fill="#263238"/>
</svg>
