<svg width="238" height="178" viewBox="0 0 238 178" fill="none" xmlns="http://www.w3.org/2000/svg">
<path d="M238 156.902H0V157.015H238V156.902Z" fill="#EBEBEB"/>
<path d="M214.152 164.185H198.387V164.298H214.152V164.185Z" fill="#EBEBEB"/>
<path d="M157.662 165.417H153.525V165.53H157.662V165.417Z" fill="#EBEBEB"/>
<path d="M197.91 159.985H188.775V160.098H197.91V159.985Z" fill="#EBEBEB"/>
<path d="M45.5291 160.745H24.9707V160.858H45.5291V160.745Z" fill="#EBEBEB"/>
<path d="M52.7826 160.745H49.7695V160.858H52.7826V160.745Z" fill="#EBEBEB"/>
<path d="M107.172 162.655H62.5801V162.768H107.172V162.655Z" fill="#EBEBEB"/>
<path d="M112.813 136.719H20.9027C20.1826 136.718 19.4925 136.445 18.9838 135.961C18.4752 135.476 18.1895 134.82 18.1895 134.135V11.2968C18.1957 10.6162 18.4842 9.9654 18.9922 9.48579C19.5002 9.00619 20.1867 8.73652 20.9027 8.73535H112.813C113.534 8.73535 114.226 9.00761 114.735 9.49222C115.245 9.97684 115.531 10.6341 115.531 11.3195V134.135C115.531 134.821 115.245 135.478 114.735 135.962C114.226 136.447 113.534 136.719 112.813 136.719ZM20.9027 8.82586C20.2142 8.82706 19.5544 9.08793 19.068 9.55119C18.5816 10.0145 18.3085 10.6423 18.3085 11.2968V134.135C18.3085 134.79 18.5816 135.418 19.068 135.881C19.5544 136.344 20.2142 136.605 20.9027 136.606H112.813C113.502 136.605 114.163 136.344 114.65 135.881C115.137 135.418 115.411 134.79 115.412 134.135V11.2968C115.411 10.6419 115.137 10.0141 114.65 9.55092C114.163 9.08778 113.502 8.82706 112.813 8.82586H20.9027Z" fill="#EBEBEB"/>
<path d="M215.774 136.719H123.859C123.138 136.718 122.448 136.445 121.938 135.961C121.429 135.477 121.142 134.82 121.141 134.135V11.2968C121.148 10.6158 121.438 9.96499 121.946 9.48551C122.455 9.00603 123.142 8.7365 123.859 8.73535H215.774C216.489 8.73771 217.175 9.00791 217.682 9.48738C218.189 9.96686 218.476 10.617 218.483 11.2968V134.135C218.483 134.819 218.198 135.475 217.69 135.959C217.182 136.444 216.493 136.717 215.774 136.719ZM123.859 8.82586C123.17 8.82706 122.509 9.08778 122.022 9.55092C121.535 10.0141 121.261 10.6419 121.26 11.2968V134.135C121.261 134.79 121.535 135.418 122.022 135.881C122.509 136.344 123.17 136.605 123.859 136.606H215.774C216.463 136.605 217.123 136.344 217.611 135.881C218.098 135.418 218.372 134.79 218.373 134.135V11.2968C218.372 10.6419 218.098 10.0141 217.611 9.55092C217.123 9.08778 216.463 8.82706 215.774 8.82586H123.859Z" fill="#EBEBEB"/>
<path d="M99.4027 103.267H92.0723V156.904H99.4027V103.267Z" fill="#F0F0F0"/>
<path d="M27.9122 156.902H92.0723V103.265H27.9122V156.902Z" fill="#F5F5F5"/>
<path d="M27.3323 152.192H83.6621V123.505H27.3323L27.3323 152.192Z" fill="#FAFAFA"/>
<path d="M27.3323 120.464H83.6621V111.019H27.3323V120.464Z" fill="#FAFAFA"/>
<g style="mix-blend-mode:multiply" opacity="0.7">
<path d="M84.1608 123.506H83.6562V152.194H84.1608V123.506Z" fill="#E6E6E6"/>
</g>
<g style="mix-blend-mode:multiply" opacity="0.7">
<path d="M84.1608 111.019H83.6562V120.463H84.1608V111.019Z" fill="#E6E6E6"/>
</g>
<g style="mix-blend-mode:multiply" opacity="0.7">
<path d="M99.4042 105.528H27.752V106.741H99.4042V105.528Z" fill="#E6E6E6"/>
</g>
<path d="M100.259 102.532H92.0723V106.04H100.259V102.532Z" fill="#F0F0F0"/>
<path d="M27.0554 106.041L92.0723 106.041V102.534L27.0554 102.534V106.041Z" fill="#F5F5F5"/>
<path d="M209.217 93.0879H189.791V156.903H209.217V93.0879Z" fill="#E0E0E0"/>
<path d="M111.275 156.903H205.071L209.688 91.4131H115.893L111.275 156.903Z" fill="#E6E6E6"/>
<path d="M109.686 156.903H203.486L208.099 91.4131H114.303L109.686 156.903Z" fill="#F0F0F0"/>
<path d="M115.432 153.079H198.279L202.354 95.2373H119.506L115.432 153.079Z" fill="white"/>
<path d="M87.6745 100.564H85.9609V73.9718C85.9622 73.7561 86.0529 73.5496 86.2133 73.3971C86.3737 73.2446 86.5909 73.1584 86.8177 73.1572C87.0446 73.1584 87.2618 73.2446 87.4222 73.3971C87.5826 73.5496 87.6733 73.7561 87.6745 73.9718V100.564Z" fill="#F5F5F5"/>
<path d="M92.1414 102.533H81.498L82.0312 101.628C82.2461 101.264 82.5591 100.961 82.9381 100.75C83.3171 100.539 83.7484 100.428 84.1874 100.429H89.4568C89.8956 100.429 90.3265 100.541 90.7053 100.751C91.0842 100.962 91.3974 101.265 91.613 101.628L92.1414 102.533Z" fill="#F0F0F0"/>
<path d="M78.6934 82.5702C78.6934 82.5702 78.898 74.9717 86.8187 74.9717C94.7393 74.9717 94.9488 82.5702 94.9488 82.5702H78.6934Z" fill="#E0E0E0"/>
<path d="M43.5247 64.5586L203.375 64.5586V18.6283L43.5247 18.6283V64.5586Z" fill="#E6E6E6"/>
<path d="M39.1647 64.5586L202.361 64.5586V18.6283L39.1647 18.6283V64.5586Z" fill="#F0F0F0"/>
<path d="M43.5236 64.5586H203.374V67.8442H41.4863L43.5236 64.5586Z" fill="#E6E6E6"/>
<path d="M35.5655 64.5586H198.762L197.82 67.8442H34.623L35.5655 64.5586Z" fill="#F0F0F0"/>
<path d="M196.26 58.7573V24.4307L45.2678 24.4307V58.7573L196.26 58.7573Z" fill="#FAFAFA"/>
<path d="M174.446 58.7573L154.011 24.4307H134.5L154.935 58.7573H174.446Z" fill="white"/>
<path d="M150.74 58.7573L130.31 24.4307H122.703L143.133 58.7573H150.74Z" fill="white"/>
<path d="M46.0449 58.7573V24.4307H45.269V58.7573H46.0449Z" fill="#E6E6E6"/>
<path d="M119.001 177.34C169.972 177.34 211.292 175.046 211.292 172.217C211.292 169.387 169.972 167.094 119.001 167.094C68.0294 167.094 26.709 169.387 26.709 172.217C26.709 175.046 68.0294 177.34 119.001 177.34Z" fill="#F5F5F5"/>
<path d="M94.0629 166.176L97.6472 164.918L94.9007 156.885L91.3164 158.143L94.0629 166.176Z" fill="#FFC3BD"/>
<path d="M97.0362 162.461L93.1044 163.774C93.035 163.796 92.9767 163.843 92.9408 163.904C92.9048 163.964 92.8936 164.036 92.9093 164.104L93.6471 167.299C93.6676 167.379 93.7053 167.454 93.7578 167.519C93.8103 167.584 93.8765 167.638 93.9521 167.677C94.0277 167.717 94.1111 167.741 94.1971 167.749C94.2831 167.756 94.3697 167.746 94.4515 167.72C95.8795 167.222 97.8739 166.462 99.6542 165.869C101.739 165.172 102.367 165.222 104.709 164.19C106.137 163.57 105.704 162.072 105.038 162.217C102.006 162.859 101.144 163.009 98.031 162.434C97.7027 162.359 97.3594 162.368 97.0362 162.461Z" fill="#263238"/>
<path opacity="0.2" d="M94.8996 156.885L96.3181 161.026L92.729 162.284L91.3105 158.143L94.8996 156.885Z" fill="black"/>
<path d="M97.7999 162.565C97.7834 162.565 97.7672 162.56 97.7536 162.551C97.74 162.542 97.7296 162.53 97.7237 162.515C97.7129 162.5 97.707 162.483 97.707 162.465C97.707 162.447 97.7129 162.43 97.7237 162.415C97.8618 162.28 99.0946 161.08 99.6277 161.171C99.676 161.18 99.7209 161.201 99.7577 161.232C99.7945 161.263 99.822 161.303 99.8372 161.347C99.869 161.42 99.8822 161.499 99.8755 161.578C99.8689 161.657 99.8427 161.733 99.7991 161.8C99.5087 162.253 98.4282 162.479 97.8142 162.56L97.7999 162.565ZM99.5516 161.343C99.2517 161.343 98.552 161.895 98.0617 162.348C98.8994 162.212 99.4897 161.981 99.6468 161.714C99.6714 161.668 99.6843 161.617 99.6843 161.565C99.6843 161.513 99.6714 161.462 99.6468 161.415C99.6405 161.397 99.6292 161.381 99.6142 161.368C99.5991 161.355 99.5808 161.347 99.5611 161.343H99.5516Z" fill="#022B67"/>
<path d="M97.7999 162.565H97.7761C97.7608 162.561 97.747 162.552 97.7362 162.541C97.7253 162.53 97.7177 162.516 97.7142 162.502C97.7142 162.461 97.5143 161.488 97.857 160.967C97.9541 160.817 98.1099 160.71 98.2902 160.669C98.5329 160.614 98.6377 160.705 98.6805 160.795C98.8709 161.167 98.2378 162.207 97.8618 162.542C97.8536 162.55 97.8439 162.556 97.8332 162.56C97.8226 162.563 97.8113 162.565 97.7999 162.565ZM98.4187 160.823H98.3235C98.2576 160.836 98.1955 160.863 98.1413 160.901C98.0872 160.94 98.0422 160.988 98.0093 161.044C97.8337 161.434 97.784 161.864 97.8665 162.28C98.2283 161.873 98.6329 161.081 98.5187 160.859C98.5329 160.859 98.4949 160.823 98.4187 160.823Z" fill="#022B67"/>
<path d="M77.6426 125.256C69.3126 107.873 62.9627 100.442 63.6053 91.097L77.0333 89.7891C77.0333 89.7891 84.9159 112.372 87.1578 123.12C89.4902 134.289 96.6302 158.352 96.6302 158.352L90.6945 159.931C90.6945 159.931 79.0753 137.779 77.6426 125.256Z" fill="#022B67"/>
<path opacity="0.2" d="M64.9414 99.7812C66.3694 103.886 68.8779 108.353 72.0053 114.195C72.1671 114.485 72.3289 114.775 72.4813 115.073C71.9196 107.982 71.4483 102.012 64.9414 99.7812Z" fill="black"/>
<path d="M96.8521 156.637L97.3043 159.157L91.0068 161.552L89.8691 159.424L96.8521 156.637Z" fill="#263238"/>
<path d="M58.2393 161.546L57.9395 169.986L62.1854 169.932L62.49 161.487L58.2393 161.546Z" fill="#FFC3BD"/>
<path d="M62.1324 168.105L57.9579 168.168C57.8847 168.169 57.8142 168.195 57.7598 168.242C57.7054 168.288 57.6709 168.352 57.6628 168.421L57.301 171.666C57.2937 171.749 57.3046 171.832 57.333 171.91C57.3613 171.988 57.4065 172.059 57.4657 172.12C57.5248 172.18 57.5966 172.228 57.6765 172.261C57.7563 172.294 57.8425 172.31 57.9294 172.309C59.4288 172.259 59.9048 172.146 61.7945 172.114C64.0079 172.083 64.6886 172.169 67.2828 172.114C68.8536 172.087 69.1058 170.58 68.4347 170.444C66.307 170.024 64.046 169.218 63.0892 168.358C62.8156 168.161 62.4736 168.071 62.1324 168.105Z" fill="#263238"/>
<path opacity="0.2" d="M58.2391 161.547L58.082 165.901L62.3327 165.842L62.4898 161.493L58.2391 161.547Z" fill="black"/>
<path d="M61.3744 168.381C61.3577 168.382 61.3412 168.378 61.3268 168.37C61.3124 168.362 61.3008 168.35 61.2934 168.336C61.283 168.322 61.2773 168.305 61.2773 168.288C61.2773 168.271 61.283 168.254 61.2934 168.241C61.4267 168.1 62.5834 166.883 63.1117 166.955C63.1607 166.962 63.207 166.98 63.2462 167.009C63.2854 167.037 63.3162 167.075 63.3355 167.118C63.3738 167.188 63.3939 167.266 63.3939 167.344C63.3939 167.423 63.3738 167.501 63.3355 167.571C63.0784 168.046 61.9979 168.286 61.3791 168.385L61.3744 168.381ZM63.0594 167.123C62.75 167.123 62.1074 167.697 61.6314 168.164C62.4739 168.001 63.0594 167.752 63.1927 167.489C63.2185 167.443 63.232 167.392 63.232 167.34C63.232 167.288 63.2185 167.237 63.1927 167.191C63.185 167.173 63.1726 167.158 63.1566 167.147C63.1407 167.136 63.1219 167.129 63.1022 167.127L63.0594 167.123Z" fill="#022B67"/>
<path d="M61.3753 168.38H61.3515C61.3356 168.375 61.3211 168.367 61.3094 168.356C61.2977 168.345 61.2893 168.331 61.2849 168.316C61.2849 168.276 60.9993 167.325 61.3135 166.805C61.3565 166.729 61.4155 166.663 61.4867 166.61C61.558 166.557 61.64 166.518 61.7276 166.497C61.7976 166.466 61.8768 166.46 61.9509 166.48C62.0251 166.5 62.0894 166.545 62.1322 166.606C62.3511 166.968 61.7942 168.013 61.4372 168.357C61.4203 168.372 61.3982 168.38 61.3753 168.38ZM61.8513 166.646H61.7609C61.6963 166.662 61.6358 166.69 61.5833 166.729C61.5308 166.768 61.4876 166.817 61.4563 166.873C61.3085 167.266 61.2919 167.692 61.4087 168.095C61.7466 167.683 62.0941 166.891 61.9608 166.673C61.9383 166.655 61.9095 166.645 61.8799 166.646H61.8513Z" fill="#022B67"/>
<path d="M58.2924 128.115C57.0882 115.099 53.2659 101.292 55.1794 91.806L69.2024 90.6475C69.2024 90.6475 70.7446 117.444 69.2024 128.531C67.6173 140.062 63.4904 163.229 63.4904 163.229L57.3023 163.315C57.3023 163.315 56.6455 140.882 58.2924 128.115Z" fill="#022B67"/>
<path d="M64.4113 161.923L64.0067 164.43L57.0856 164.548L56.6953 162.176L64.4113 161.923Z" fill="#263238"/>
<path d="M89.9023 51.6789C89.9136 51.5006 89.8878 51.3219 89.8264 51.1531C89.7651 50.9843 89.6693 50.8286 89.5447 50.695C89.42 50.5614 89.2689 50.4524 89.1 50.3743C88.931 50.2962 88.7475 50.2504 88.56 50.2397C88.1813 50.2181 87.809 50.3405 87.5252 50.5798C87.2413 50.8191 87.0691 51.1559 87.0463 51.516V51.5838C86.8274 52.489 86.5703 53.4891 86.3371 54.4214C86.1039 55.3537 85.7945 56.2814 85.4565 57.1368C85.1644 57.958 84.7864 58.7495 84.3284 59.4991C84.1579 59.7806 83.9552 60.0431 83.7239 60.282C82.8632 60.1648 82.0099 60.0031 81.1677 59.7978C80.0015 59.5082 78.7877 59.1597 77.6168 58.7841C76.4458 58.4085 75.2368 58.0011 74.0372 57.5757C72.8377 57.1503 71.6573 56.7023 70.5006 56.2814H70.4482C69.7457 56.0365 68.9709 56.0589 68.2854 56.3438C67.5998 56.6288 67.0564 57.1544 66.7685 57.811C66.4806 58.4676 66.4704 59.2045 66.74 59.8681C67.0097 60.5317 67.5383 61.0707 68.2158 61.3727C69.5057 61.9248 70.7433 62.3593 72.0238 62.8164C73.3042 63.2735 74.5942 63.6627 75.9175 64.0247C77.2407 64.3868 78.583 64.7081 79.9873 64.957C81.4835 65.2506 83.0106 65.3781 84.5378 65.3372H84.6854C85.0745 65.3196 85.4526 65.2091 85.7849 65.0158C86.5234 64.581 87.1614 64.0083 87.6604 63.3323C88.0693 62.7795 88.414 62.1862 88.6885 61.5628C88.9434 61.008 89.1503 60.4343 89.3073 59.8476C89.4644 59.2864 89.5929 58.7298 89.6881 58.1822C89.8755 57.1028 89.9868 56.0127 90.0213 54.9192C90.0578 53.8378 90.018 52.7553 89.9023 51.6789Z" fill="#FFC3BD"/>
<path d="M88.9547 53.539L92.677 52.0229L89.5688 48.7373C89.5688 48.7373 86.0892 50.3891 86.9603 52.3578L88.9547 53.539Z" fill="#FFC3BD"/>
<path d="M94.1471 49.5188L92.8191 48.0027C92.6538 47.8157 92.4256 47.6888 92.1732 47.6434C91.9207 47.5981 91.6596 47.6371 91.4339 47.7538L89.5918 48.7132L92.7001 51.9988L93.9996 51.0394C94.1174 50.9508 94.215 50.8404 94.2866 50.7149C94.3582 50.5894 94.4022 50.4513 94.416 50.3092C94.4298 50.167 94.4131 50.0236 94.3669 49.8877C94.3207 49.7519 94.2459 49.6264 94.1471 49.5188Z" fill="#FFC3BD"/>
<path d="M68.09 54.9595C71.8646 54.706 79.3474 58.8289 79.3474 58.8289L75.6822 66.2373C73.4161 65.781 71.2542 64.9426 69.299 63.7618C68.228 63.1327 63.6156 55.2627 68.09 54.9595Z" fill="#263238"/>
<path d="M68.5452 54.9502C63.5138 55.1173 58.5237 55.8774 53.6893 57.213C51.4045 57.8964 49.4053 59.9284 49.8337 62.164C50.8285 67.5947 52.9991 76.6685 54.1177 92.3995C56.1549 92.9607 62.8999 92.4222 67.617 91.9787C68.1311 91.9334 69.3544 90.7567 69.3544 90.7567C69.3544 90.7567 70.5111 91.6619 71.1632 91.5713C74.2858 91.1188 76.761 90.5576 77.3227 89.9557C76.8467 85.4935 75.5995 75.7091 74.8855 69.3552C74.7903 66.848 74.381 62.2274 73.2957 59.607C72.2628 57.1225 71.3251 54.8959 68.5452 54.9502Z" fill="#263238"/>
<path d="M58.8532 49.6738C59.4768 52.3394 59.2673 55.1905 57.668 57.1184C58.8437 58.7793 61.5807 60.0827 64.2986 60.7389C66.0265 58.7703 65.9313 56.7111 65.1507 55.625C65.1507 54.1089 64.9746 53.0499 65.0317 51.914L58.8532 49.6738Z" fill="#FFC3BD"/>
<path d="M64.2969 60.7296C64.6478 60.2766 64.8751 59.7479 64.9585 59.1909C65.0299 58.3763 66.5293 58.9148 66.5293 58.9148C65.9615 59.692 65.1926 60.3171 64.2969 60.7296Z" fill="#E0E0E0"/>
<path d="M64.2975 60.7288C64.2107 60.4359 64.0321 60.1751 63.7855 59.981C63.5389 59.787 63.236 59.669 62.9171 59.6427C62.1679 59.5495 61.4062 59.6191 60.6895 59.8463C60.6895 59.8463 62.8315 60.7786 64.2975 60.7288Z" fill="#E0E0E0"/>
<path opacity="0.2" d="M60.8407 48.9355H60.793C60.8168 48.9729 60.8359 48.9635 60.8407 48.9355Z" fill="black"/>
<path opacity="0.2" d="M65.0377 51.9104L60.1729 49.8604C59.6969 52.2996 62.2388 53.508 65.0995 53.9696C65.0417 53.2847 65.0211 52.5974 65.0377 51.9104Z" fill="black"/>
<path d="M65.0898 40.7097C68.6646 40.3205 69.4738 42.701 67.8935 45.7784C67.0387 45.2037 66.3391 44.4449 65.8519 43.564C65.3646 42.683 65.1035 41.705 65.0898 40.7097Z" fill="#263238"/>
<path d="M57.7086 45.1622C58.4226 48.7057 58.4369 50.9821 60.8407 52.1814C66.1671 54.8424 68.4567 52.5525 68.8613 48.8686C69.2373 45.5513 68.0093 40.3107 64.1394 39.3649C63.2818 39.1566 62.3826 39.1584 61.526 39.3701C60.6693 39.5819 59.8831 39.9966 59.2408 40.5757C58.5984 41.1547 58.121 41.8791 57.8531 42.6812C57.5851 43.4833 57.5354 44.3369 57.7086 45.1622Z" fill="#FFC3BD"/>
<path d="M58.7595 47.6559C60.1875 47.9863 60.7682 47.4658 60.8206 47.2667C60.4518 47.2157 60.0937 47.1103 59.7591 46.9544C59.7591 46.9544 60.5588 46.7146 60.6397 46.1805C59.9971 46.1805 58.7833 45.2754 59.1689 44.3115C59.5544 43.3475 59.4116 43.1031 58.7595 42.8497C57.5463 42.5493 56.2816 42.4862 55.0419 42.6642C55.2619 42.8503 55.5107 43.0029 55.7797 43.1167C55.7797 43.1167 54.3517 43.8046 55.0419 44.927C55.7321 46.0493 57.1554 46.9906 57.0411 47.6695C58.1835 48.0722 58.7595 47.6559 58.7595 47.6559Z" fill="#263238"/>
<path d="M67.5932 39.4235C68.8879 39.4235 69.6114 38.7175 69.7018 37.9255C68.5928 38.5229 66.9886 38.2197 64.0422 37.2558C61.3528 36.3506 59.444 36.8847 58.1588 37.8396C58.1826 37.2965 59.2584 36.4502 59.2584 36.4502C59.2584 36.4502 56.7118 36.4502 55.4837 38.36C54.5032 39.8851 55.5361 40.6907 55.5361 40.6907C55.5361 40.6907 53.4274 40.6635 52.8086 42.2701C54.1842 41.6818 54.9173 42.3787 54.9173 42.3787C54.6073 42.6073 54.2621 42.7889 53.8939 42.9173C54.3366 43.6278 55.5884 43.2612 55.5884 43.2612C57.7685 44.4877 64.3088 42.6774 65.3417 42.2249C64.7786 42.1521 64.228 42.0091 63.7042 41.7995C63.7042 41.7995 67.9121 40.5549 69.6542 41.5008C69.9732 40.7495 68.707 39.7222 67.5932 39.4235Z" fill="#022B67"/>
<path d="M67.4145 49.2441C67.4145 49.2441 66.2673 48.968 63.0781 48.9092C63.274 49.4483 63.6519 49.9106 64.153 50.2241C64.6541 50.5376 65.2502 50.6847 65.8484 50.6425C66.0509 50.6613 66.2553 50.6388 66.4478 50.5764C66.6404 50.514 66.8167 50.4133 66.965 50.2809C67.1132 50.1485 67.2301 49.9875 67.3076 49.8087C67.3851 49.6299 67.4216 49.4374 67.4145 49.2441Z" fill="#263238"/>
<path d="M65.0658 49.9177C65.7027 49.8945 66.331 50.0641 66.8603 50.4019C66.5634 50.5926 66.2087 50.6848 65.8512 50.6644C65.2145 50.6847 64.5871 50.5154 64.0566 50.1802C64.3538 49.9901 64.7082 49.8979 65.0658 49.9177Z" fill="#ED847E"/>
<path d="M67.2667 49.2172C67.1858 49.4118 67.1049 49.6109 66.7907 49.6698C65.8398 49.6522 64.8922 49.5568 63.9585 49.3847C63.8063 49.3711 63.6599 49.3229 63.5314 49.2441C63.403 49.1653 63.2964 49.0583 63.2207 48.9321C64.5752 48.9241 65.9282 49.0194 67.2667 49.2172Z" fill="white"/>
<path opacity="0.2" d="M62.9665 48.3752C62.9665 48.3752 62.0859 48.2847 62.2335 48.9545C62.3572 48.6694 62.9665 48.3752 62.9665 48.3752Z" fill="black"/>
<path opacity="0.2" d="M62.4045 45.5151C61.8982 45.3179 61.3306 45.3179 60.8242 45.5151C61.3461 45.6121 61.8827 45.6121 62.4045 45.5151Z" fill="black"/>
<path opacity="0.2" d="M62.3556 45.8773C62.1126 45.8309 61.8618 45.8356 61.6208 45.8911C61.3799 45.9467 61.1547 46.0516 60.9609 46.1986C61.4444 46.1859 61.9196 46.0764 62.3556 45.8773Z" fill="black"/>
<path opacity="0.2" d="M67.6641 44.8681C67.6641 44.8681 68.0639 44.4427 68.3685 44.5785C68.1682 44.738 67.9235 44.8386 67.6641 44.8681Z" fill="black"/>
<path opacity="0.2" d="M67.6641 45.1344C67.6641 45.1344 68.0496 44.8584 68.2733 45.1344C68.1768 45.1728 68.0733 45.1925 67.9687 45.1925C67.8641 45.1925 67.7606 45.1728 67.6641 45.1344Z" fill="black"/>
<path d="M56.4347 48.1985C56.7317 48.972 57.3395 49.6019 58.1245 49.9499C59.1717 50.4025 59.8761 49.5516 59.7429 48.5243C59.6191 47.6192 58.9289 46.2615 57.8055 46.2344C57.5598 46.2337 57.3178 46.2911 57.1011 46.4013C56.8845 46.5114 56.6999 46.671 56.5641 46.8656C56.4282 47.0603 56.3453 47.2839 56.3227 47.5166C56.3001 47.7492 56.3386 47.9835 56.4347 48.1985Z" fill="#FFC3BD"/>
<path d="M62.9596 45.6601C63.0025 45.9497 63.1929 46.167 63.3928 46.1398C63.5927 46.1126 63.726 45.8592 63.6879 45.5651C63.6498 45.2709 63.4547 45.0582 63.2547 45.0853C63.0548 45.1125 62.9215 45.3931 62.9596 45.6601Z" fill="#263238"/>
<path d="M66.7815 45.1708C66.8195 45.4604 67.0147 45.6777 67.2146 45.6505C67.4145 45.6234 67.5431 45.3654 67.505 45.0758C67.4669 44.7861 67.2717 44.5689 67.0718 44.596C66.8719 44.6232 66.7386 44.8766 66.7815 45.1708Z" fill="#263238"/>
<path d="M65.5156 45.3477C66.0394 46.171 66.6801 46.9218 67.4196 47.5788C67.2347 47.7567 67.011 47.8938 66.7643 47.9806C66.5175 48.0674 66.2538 48.1017 65.9916 48.0811L65.5156 45.3477Z" fill="#ED847E"/>
<path d="M61.9949 44.338C61.9667 44.344 61.9374 44.344 61.9092 44.338C61.8881 44.3272 61.8695 44.3124 61.8545 44.2945C61.8396 44.2766 61.8287 44.256 61.8225 44.234C61.8162 44.2119 61.8148 44.1889 61.8182 44.1663C61.8217 44.1437 61.83 44.1221 61.8426 44.1026C61.978 43.8592 62.1726 43.6501 62.4102 43.4927C62.6479 43.3352 62.9216 43.234 63.2087 43.1975C63.2324 43.1963 63.2562 43.1995 63.2787 43.2071C63.3011 43.2146 63.3218 43.2263 63.3394 43.2414C63.3571 43.2565 63.3715 43.2749 63.3817 43.2953C63.392 43.3157 63.3979 43.3378 63.3991 43.3604C63.401 43.3828 63.3982 43.4053 63.3908 43.4266C63.3835 43.4479 63.3717 43.4676 63.3561 43.4845C63.3406 43.5014 63.3216 43.5151 63.3004 43.5249C63.2791 43.5347 63.2561 43.5403 63.2325 43.5415C63.0065 43.5731 62.7915 43.6547 62.6046 43.7797C62.4178 43.9046 62.2644 44.0695 62.1567 44.261C62.1392 44.2862 62.1151 44.3066 62.0867 44.3201C62.0582 44.3336 62.0266 44.3398 61.9949 44.338Z" fill="#263238"/>
<path d="M67.8296 43.2837C67.8008 43.2912 67.7706 43.2918 67.7415 43.2855C67.7124 43.2792 67.6855 43.2661 67.663 43.2475C67.5003 43.0973 67.3023 42.9862 67.0854 42.9232C66.8686 42.8603 66.639 42.8473 66.4159 42.8854C66.3927 42.8915 66.3685 42.893 66.3447 42.8898C66.321 42.8866 66.2981 42.8789 66.2776 42.867C66.2571 42.8551 66.2394 42.8394 66.2255 42.8208C66.2116 42.8022 66.2019 42.781 66.1969 42.7587C66.1853 42.7149 66.1922 42.6685 66.2163 42.6296C66.2403 42.5906 66.2795 42.5622 66.3254 42.5505C66.6084 42.4983 66.9005 42.5122 67.1766 42.591C67.4527 42.6699 67.7046 42.8113 67.9105 43.0031C67.9437 43.036 67.9622 43.0797 67.9622 43.1253C67.9622 43.1708 67.9437 43.2146 67.9105 43.2475C67.8881 43.2672 67.8598 43.2799 67.8296 43.2837Z" fill="#263238"/>
<path d="M58.1911 79.4616H58.1102C57.0772 79.2444 55.9586 79.0091 54.9209 78.7013C53.8994 78.4262 52.899 78.0844 51.9269 77.6785C51.0666 77.3416 50.2644 76.884 49.5469 76.3208C49.2872 76.1141 49.0652 75.8679 48.89 75.5922C48.8399 75.5034 48.797 75.4111 48.7615 75.3162C48.7615 75.289 48.7996 75.1804 48.8139 75.1035L48.9091 74.8002L49.0281 74.4563C49.2089 73.9766 49.4279 73.4471 49.6707 72.9221C50.1467 71.8722 50.7131 70.7906 51.2843 69.7135C51.8555 68.6364 52.4505 67.5548 53.0503 66.4777L54.8638 63.2554C55.225 62.6193 55.3093 61.8738 55.0985 61.1792C54.8878 60.4846 54.3989 59.8963 53.7369 59.5407C53.0749 59.1851 52.2926 59.0906 51.5581 59.2774C50.8236 59.4643 50.1955 59.9177 49.8087 60.5401C49.1042 61.6624 48.4902 62.7712 47.8619 63.9026C47.2335 65.034 46.6481 66.1654 46.0911 67.3602C45.5342 68.5549 44.9916 69.7316 44.5108 70.9806C44.2728 71.6187 44.0348 72.2659 43.8397 72.981L43.7016 73.5376C43.6588 73.7413 43.6159 73.9313 43.5779 74.1486C43.5367 74.3854 43.5081 74.624 43.4922 74.8636C43.4922 75.0084 43.4922 75.1035 43.4922 75.2845C43.4922 75.4655 43.4922 75.6239 43.5207 75.7914V75.8276C43.5301 75.9256 43.5492 76.0226 43.5779 76.1172C43.816 76.9804 44.2444 77.7856 44.8345 78.4796C45.3608 79.0859 45.9783 79.615 46.6671 80.0499C47.8506 80.7681 49.1498 81.2971 50.5132 81.6158C51.7429 81.9144 52.9982 82.1083 54.2641 82.1951C55.5044 82.2901 56.7508 82.2901 57.9911 82.1951C58.3699 82.2191 58.7431 82.0991 59.0288 81.8614C59.3144 81.6238 59.4891 81.288 59.5143 80.9279C59.5396 80.5678 59.4134 80.213 59.1634 79.9414C58.9135 79.6698 58.5603 79.5037 58.1816 79.4797L58.1911 79.4616Z" fill="#FFC3BD"/>
<path d="M53.4313 57.2813C49.1758 58.3855 44.8633 68.7175 44.8633 68.7175L51.3131 73.5961C51.3131 73.5961 55.2924 70.3105 56.173 66.4275C56.8347 63.4497 57.7581 56.1544 53.4313 57.2813Z" fill="#263238"/>
<path d="M55.9449 79.2764L59.534 77.8916L60.01 82.286C60.01 82.286 56.6018 83.1639 55.8164 81.5166L55.9449 79.2764Z" fill="#FFC3BD"/>
<path d="M63.2516 79.3348L63.1469 80.9007C63.1258 81.2025 62.9927 81.4874 62.7713 81.7045C62.5498 81.9217 62.2545 82.057 61.9379 82.0864L60.0053 82.2674L59.5293 77.873L61.9664 77.9771C62.1455 77.9834 62.3214 78.0238 62.4837 78.096C62.6461 78.1682 62.7915 78.2706 62.9114 78.3972C63.0313 78.5239 63.1231 78.6721 63.1816 78.8332C63.24 78.9943 63.2639 79.1648 63.2516 79.3348Z" fill="#FFC3BD"/>
<path d="M58.3911 55.5801C58.5006 56.4128 59.0575 59.2006 62.9178 59.6531C61.547 59.9654 61.5327 62.0834 61.5327 62.0834C61.5327 62.0834 56.5061 59.5898 57.2487 56.2363C57.5337 55.8937 57.9395 55.6606 58.3911 55.5801Z" fill="white"/>
<path d="M65.1684 54.752C65.0732 55.6299 65.3398 56.8202 64.959 59.1916C66.3346 58.9019 67.0915 60.7303 67.0915 60.7303C67.0915 60.7303 68.1339 57.4583 65.9967 54.9104C65.7283 54.8259 65.4502 54.7727 65.1684 54.752Z" fill="white"/>
<path d="M134.531 46.4975C136.545 43.9994 140.243 41.0397 143.632 43.9134C146.774 46.5881 146.66 54.7749 142.999 56.9969C143.118 53.1592 136.749 53.0099 138.03 48.3259C137.374 49.1508 136.568 49.8573 135.65 50.4122L134.531 46.4975Z" fill="#263238"/>
<path d="M133.66 45.4523C135.369 44.9997 135.812 44.8051 136.516 45.0947C137.221 45.3844 136.959 46.6742 137.587 47.6381C138.215 48.6021 139.044 49.3805 137.006 50.3173C136.107 49.7899 135.341 49.0805 134.763 48.2397C134.184 47.3988 133.808 46.4471 133.66 45.4523Z" fill="#022B67"/>
<path d="M126.825 44.5373C119.17 42.5369 119.032 53.1359 120.432 59.4717C120.916 58.1094 121.69 56.8568 122.707 55.7924L129.266 60.3497C133.898 58.992 141.942 53.9279 135.454 47.6192C133.003 40.3149 126.825 44.5373 126.825 44.5373Z" fill="#263238"/>
<path d="M136.908 159.261L141.611 159.587C140.964 163.148 140.35 168.774 140.35 168.774H136.613C136.613 168.774 137.046 161.7 136.908 159.261Z" fill="#B55B52"/>
<path d="M112.213 159.261L116.883 159.587C115.831 163.148 114.593 168.774 114.593 168.774H110.861C110.861 168.774 112.08 161.7 112.213 159.261Z" fill="#B55B52"/>
<path d="M132.575 172.291C135.816 172.291 135.588 172.241 137.416 172.182C138.977 172.132 139.32 172.318 140.595 172.291C141.643 172.291 141.676 171.313 141.438 170.218C141.347 169.797 141.209 169.313 141.081 168.702C141.046 168.532 140.95 168.379 140.809 168.27C140.668 168.161 140.492 168.102 140.31 168.105H136.502C136.363 168.105 136.226 168.136 136.102 168.196C135.978 168.256 135.87 168.342 135.788 168.448C135.337 169.011 134.77 169.479 134.122 169.826C133.473 170.172 132.757 170.389 132.018 170.462C130.271 170.684 131.285 172.291 132.575 172.291Z" fill="#022B67"/>
<path d="M105.228 170.901C108.351 171.408 108.708 171.272 110.464 171.503C111.992 171.702 112.116 172.037 113.644 172.291C114.653 172.458 115.233 171.426 115.191 170.575C115.191 170.064 115.057 169.467 115.062 168.838C115.069 168.675 115.012 168.516 114.903 168.391C114.794 168.266 114.641 168.183 114.472 168.159L111.221 167.625C111.093 167.604 110.962 167.609 110.836 167.639C110.71 167.668 110.591 167.722 110.488 167.797C109.765 168.341 108.935 168.742 108.046 168.976C107.157 169.209 106.228 169.27 105.314 169.154C103.591 169.005 103.976 170.693 105.228 170.901Z" fill="#022B67"/>
<path d="M117.283 89.709C117.283 89.709 114.337 111.504 114.594 125.348C113.475 138.346 111.676 163.205 111.676 163.205C111.733 163.865 115.417 163.603 116.069 163.205C116.069 163.205 124.514 146.428 123.138 125.348C132.52 103.363 131.958 89.709 131.958 89.709H117.283Z" fill="#022B67"/>
<path opacity="0.2" d="M129.341 107.308C128.613 110.15 127.68 113.295 126.485 116.721C126.133 109.82 124.172 100.583 124.105 100.271L129.341 107.308Z" fill="black"/>
<path d="M121.277 89.709C121.277 89.709 127.984 114.31 130.64 126.394C133.43 139.065 137.338 154.774 136.562 163.205C137.309 163.621 139.979 163.657 141.488 163.205C141.488 163.205 147.229 139.169 139.927 126.955C142.569 96.8956 134.215 89.709 134.215 89.709H121.277Z" fill="#022B67"/>
<path d="M136.241 161.447C136.21 162.028 136.135 162.606 136.018 163.176C136.006 163.223 136.005 163.272 136.014 163.32C136.023 163.368 136.043 163.413 136.071 163.453C136.1 163.493 136.137 163.527 136.18 163.552C136.224 163.578 136.272 163.595 136.322 163.602C138.117 163.878 140.74 163.479 141.558 163.339C141.636 163.325 141.707 163.289 141.762 163.236C141.818 163.183 141.854 163.114 141.868 163.04L142.187 161.42C142.197 161.369 142.196 161.317 142.182 161.266C142.169 161.216 142.143 161.169 142.108 161.129C142.073 161.089 142.029 161.057 141.979 161.035C141.929 161.014 141.875 161.003 141.82 161.004L136.584 161.099C136.493 161.11 136.409 161.15 136.346 161.214C136.283 161.278 136.246 161.36 136.241 161.447Z" fill="#263238"/>
<path opacity="0.1" d="M136.241 161.447C136.21 162.028 136.135 162.606 136.018 163.176C136.006 163.223 136.005 163.272 136.014 163.32C136.023 163.368 136.043 163.413 136.071 163.453C136.1 163.493 136.137 163.527 136.18 163.552C136.224 163.578 136.272 163.595 136.322 163.602C138.117 163.878 140.74 163.479 141.558 163.339C141.636 163.325 141.707 163.289 141.762 163.236C141.818 163.183 141.854 163.114 141.868 163.04L142.187 161.42C142.197 161.369 142.196 161.317 142.182 161.266C142.169 161.216 142.143 161.169 142.108 161.129C142.073 161.089 142.029 161.057 141.979 161.035C141.929 161.014 141.875 161.003 141.82 161.004L136.584 161.099C136.493 161.11 136.409 161.15 136.346 161.214C136.283 161.278 136.246 161.36 136.241 161.447Z" fill="white"/>
<path d="M111.319 161.37C111.271 161.823 111.181 162.624 111.09 163.221C111.083 163.267 111.085 163.314 111.097 163.359C111.109 163.404 111.13 163.446 111.159 163.483C111.188 163.52 111.225 163.551 111.267 163.575C111.309 163.598 111.356 163.613 111.404 163.619C113.019 163.745 114.643 163.727 116.255 163.565C116.335 163.558 116.411 163.528 116.472 163.479C116.533 163.429 116.577 163.363 116.597 163.289L117.073 161.673C117.09 161.622 117.095 161.567 117.086 161.514C117.076 161.46 117.054 161.41 117.021 161.366C116.988 161.322 116.944 161.286 116.894 161.261C116.844 161.236 116.788 161.222 116.731 161.221L111.742 161.031C111.691 161.026 111.639 161.032 111.59 161.047C111.541 161.061 111.496 161.085 111.456 161.117C111.417 161.148 111.384 161.187 111.361 161.23C111.337 161.274 111.323 161.321 111.319 161.37Z" fill="#263238"/>
<path opacity="0.1" d="M111.319 161.37C111.271 161.823 111.181 162.624 111.09 163.221C111.083 163.267 111.085 163.314 111.097 163.359C111.109 163.404 111.13 163.446 111.159 163.483C111.188 163.52 111.225 163.551 111.267 163.575C111.309 163.598 111.356 163.613 111.404 163.619C113.019 163.745 114.643 163.727 116.255 163.565C116.335 163.558 116.411 163.528 116.472 163.479C116.533 163.429 116.577 163.363 116.597 163.289L117.073 161.673C117.09 161.622 117.095 161.567 117.086 161.514C117.076 161.46 117.054 161.41 117.021 161.366C116.988 161.322 116.944 161.286 116.894 161.261C116.844 161.236 116.788 161.222 116.731 161.221L111.742 161.031C111.691 161.026 111.639 161.032 111.59 161.047C111.541 161.061 111.496 161.085 111.456 161.117C111.417 161.148 111.384 161.187 111.361 161.23C111.337 161.274 111.323 161.321 111.319 161.37Z" fill="white"/>
<path d="M121.299 66.9215C121.004 66.7474 120.675 66.6305 120.332 66.5775C119.989 66.5244 119.638 66.5363 119.3 66.6124C118.961 66.6885 118.642 66.8273 118.361 67.0209C118.079 67.2145 117.84 67.4591 117.658 67.7406C116.982 68.7815 116.339 69.8495 115.673 70.9085C115.007 71.9675 114.369 73.0265 113.731 74.0764C112.688 75.8007 111.665 77.534 110.646 79.2673C110.432 79.222 110.218 79.1723 109.994 79.1044C109.191 78.8587 108.408 78.5562 107.652 78.1993C106.857 77.8372 106.067 77.4208 105.272 76.9773C104.477 76.5338 103.687 76.0722 102.945 75.597L102.878 75.5608C102.615 75.3973 102.299 75.3285 101.988 75.3667C101.676 75.4049 101.389 75.5477 101.178 75.7693C100.968 75.991 100.847 76.2769 100.838 76.5755C100.83 76.8742 100.934 77.1659 101.131 77.3982C101.469 77.8055 101.793 78.154 102.145 78.507C102.497 78.86 102.84 79.2085 103.207 79.5434C103.958 80.2181 104.753 80.8484 105.587 81.4305C106.459 82.0399 107.39 82.5702 108.366 83.0145C109.476 83.5315 110.677 83.8477 111.908 83.9468C112.298 83.9727 112.688 83.9001 113.039 83.7364C113.39 83.5727 113.69 83.3236 113.907 83.0145L114.016 82.8606C115.46 80.8 116.869 78.7227 118.243 76.6289C118.934 75.5835 119.609 74.5245 120.276 73.4609C120.942 72.3974 121.609 71.343 122.242 70.2568C122.561 69.6913 122.641 69.0313 122.466 68.4116C122.291 67.7918 121.873 67.2589 121.299 66.9215Z" fill="#B55B52"/>
<path d="M97.261 77.195L98.1511 78.1001C98.3158 78.269 98.5204 78.3982 98.7481 78.4769C98.9757 78.5557 99.2198 78.5816 99.4601 78.5526L101.735 78.2675C102.183 78.2104 102.611 78.0531 102.982 77.8084C103.354 77.5637 103.659 77.2387 103.873 76.8601L104.139 76.4075C102.773 74.8054 100.055 74.027 100.055 74.027L99.3031 73.7238C99.1514 73.6568 98.9873 73.6191 98.8202 73.6131C98.653 73.6072 98.4864 73.633 98.3299 73.689C98.1734 73.7451 98.0302 73.8303 97.9088 73.9396C97.7874 74.0489 97.6902 74.1802 97.6228 74.3257L96.9707 75.7287C96.8668 75.9739 96.8389 76.2423 96.8904 76.5022C96.9418 76.762 97.0704 77.0024 97.261 77.195Z" fill="#B55B52"/>
<path d="M120.832 64.3057C117.6 64.8849 115.887 67.4736 112.707 72.9315C113.445 74.9635 118.462 76.9049 118.462 76.9049C118.462 76.9049 126.14 68.2701 120.832 64.3057Z" fill="#263238"/>
<path d="M133.28 85.8707C133.357 87.1579 133.516 88.4394 133.756 89.7084H117.453L117.281 85.753C117.281 85.753 129.876 85.0742 133.28 85.8707Z" fill="#B55B52"/>
<path d="M115.71 69.7403C115.614 72.127 115.652 74.5169 115.825 76.8998C115.963 80.0089 115.349 80.7737 115.825 85.8695C117.614 86.8697 129.4 86.8289 135.198 86.1184C134.846 81.706 134.412 78.7326 137.554 68.8125C138.282 66.5135 136.659 64.2869 134.065 64.0652C133.37 64.0063 132.637 63.952 131.88 63.9203C129.233 63.7505 126.578 63.7505 123.931 63.9203C123.069 63.9882 122.174 64.0878 121.318 64.1919C118.243 64.5766 115.806 66.9842 115.71 69.7403Z" fill="#263238"/>
<path d="M131.337 55.4219C130.647 57.8521 129.795 62.3053 131.456 63.93C131.456 63.93 132.732 66.1928 125.192 65.8398C119.913 65.5818 123.512 63.93 123.512 63.93C126.411 63.2828 126.497 61.269 126.149 59.3818L131.337 55.4219Z" fill="#B55B52"/>
<path opacity="0.2" d="M129.22 57.0381L126.141 59.3778C126.231 59.8254 126.279 60.2798 126.283 60.7355C127.383 60.5862 128.968 59.4457 129.168 58.3641C129.273 57.9291 129.291 57.4793 129.22 57.0381Z" fill="black"/>
<path d="M133.559 51.0634C132.831 54.7608 132.607 56.3357 130.385 58.1052C127.053 60.7753 122.464 59.3633 122.026 55.5935C121.631 52.2038 122.892 46.7278 126.895 45.5059C127.747 45.216 128.664 45.1479 129.553 45.3086C130.441 45.4693 131.268 45.8531 131.948 46.42C132.628 46.987 133.135 47.7165 133.419 48.5329C133.702 49.3494 133.751 50.2231 133.559 51.0634Z" fill="#B55B52"/>
<path d="M132.144 50.8232C130.625 53.1358 132.144 54.2853 132.144 54.2853L133.9 52.6335L132.144 50.8232Z" fill="#263238"/>
<path d="M123.684 55.1545C123.684 55.1545 125.826 54.9283 127.968 54.7246C126.939 56.114 124.169 56.6435 123.684 55.1545Z" fill="white"/>
<path d="M127.402 51.6784C127.355 51.9906 127.145 52.2305 126.926 52.2169C126.707 52.2033 126.584 51.9363 126.631 51.6241C126.679 51.3118 126.888 51.0719 127.107 51.0855C127.326 51.0991 127.45 51.3661 127.402 51.6784Z" fill="#263238"/>
<path d="M123.432 51.4561C123.384 51.7684 123.175 52.0082 122.956 51.9946C122.737 51.9811 122.613 51.7141 122.661 51.4018C122.708 51.0895 122.918 50.8451 123.137 50.8632C123.355 50.8814 123.479 51.1438 123.432 51.4561Z" fill="#263238"/>
<path d="M123.227 50.8877L122.484 50.6162C122.484 50.6162 122.808 51.2317 123.227 50.8877Z" fill="#263238"/>
<path d="M124.46 52.0449C124.063 52.7391 123.575 53.3824 123.008 53.9592C123.159 54.0854 123.338 54.177 123.532 54.2272C123.726 54.2774 123.929 54.2848 124.126 54.2489L124.46 52.0449Z" fill="#A02724"/>
<path d="M134.114 54.2181C133.989 54.5578 133.791 54.8691 133.533 55.1324C133.275 55.3957 132.962 55.6052 132.615 55.7477C131.739 56.06 131.244 55.1187 131.439 54.1095C131.615 53.2043 132.281 51.9417 133.186 52.0729C134.09 52.2042 134.476 53.313 134.114 54.2181Z" fill="#B55B52"/>
<path d="M126.825 45.0716C125.716 47.7055 133.831 51.86 134.246 55.1048C136.269 51.8735 134.317 42.6051 126.825 45.0716Z" fill="#263238"/>
<path d="M127.315 44.9395C124.488 45.6681 123.684 47.6548 123.684 47.6548C123.684 47.6548 129.524 46.2474 127.315 44.9395Z" fill="#263238"/>
<path d="M128.518 50.0008C128.493 50.0014 128.467 49.9963 128.444 49.9861C128.421 49.9759 128.401 49.9608 128.385 49.942C128.23 49.7736 128.034 49.6442 127.814 49.5653C127.594 49.4863 127.357 49.4603 127.123 49.4894C127.1 49.494 127.075 49.4937 127.051 49.4888C127.027 49.4838 127.005 49.4743 126.985 49.4607C126.966 49.447 126.949 49.4297 126.937 49.4097C126.925 49.3898 126.917 49.3676 126.914 49.3446C126.907 49.2956 126.92 49.2459 126.95 49.2056C126.98 49.1652 127.025 49.1373 127.076 49.1274C127.37 49.0875 127.671 49.1179 127.95 49.2159C128.229 49.3138 128.478 49.4763 128.675 49.6886C128.708 49.7268 128.723 49.7754 128.719 49.8244C128.714 49.8733 128.69 49.9187 128.651 49.951C128.613 49.9803 128.567 49.9976 128.518 50.0008Z" fill="#263238"/>
<path d="M122.68 49.0138C122.656 49.017 122.632 49.0149 122.609 49.0079C122.586 49.0008 122.565 48.9889 122.547 48.9731C122.529 48.9563 122.515 48.9362 122.505 48.914C122.495 48.8919 122.49 48.8681 122.49 48.8441C122.49 48.8201 122.495 48.7964 122.505 48.7742C122.515 48.7521 122.529 48.732 122.547 48.7151C122.747 48.4864 122.999 48.3045 123.285 48.1836C123.57 48.0627 123.882 48.0061 124.194 48.0182C124.218 48.0215 124.242 48.0294 124.263 48.0415C124.284 48.0537 124.302 48.0698 124.316 48.0888C124.331 48.1079 124.341 48.1295 124.346 48.1524C124.351 48.1753 124.351 48.1989 124.346 48.2219C124.336 48.2701 124.308 48.3133 124.267 48.3432C124.225 48.3732 124.174 48.3879 124.123 48.3848C123.876 48.3785 123.63 48.4263 123.406 48.5244C123.182 48.6225 122.984 48.7682 122.828 48.9505C122.809 48.9698 122.786 48.9854 122.761 48.9963C122.735 49.0071 122.708 49.0131 122.68 49.0138Z" fill="#263238"/>
<path d="M127.196 51.1094L126.453 50.8379C126.453 50.8379 126.763 51.4534 127.196 51.1094Z" fill="#263238"/>
<path d="M129.961 79.4939H125.396L125.016 72.3887H130.342L129.961 79.4939Z" fill="#022B67"/>
<path d="M128.543 77.6963H125.283L125.111 74.207H128.543V77.6963Z" fill="white"/>
<path d="M130.628 72.0495H130.043L129.948 71.6875H125.406L125.311 72.0495H124.731L124.545 72.7329H130.809L130.628 72.0495Z" fill="white"/>
<path d="M128.52 73.9052L129.82 73.8011C130.061 73.7816 130.304 73.8169 130.528 73.9043C130.753 73.9916 130.952 74.1285 131.11 74.3035L132.595 75.9689C132.888 76.2961 133.095 76.6856 133.197 77.1047C133.299 77.5238 133.293 77.96 133.18 78.3765L133.042 78.897C130.895 79.2137 128.334 78.0507 128.334 78.0507L127.568 77.7972C127.409 77.7495 127.261 77.6721 127.133 77.5695C127.005 77.467 126.9 77.3413 126.824 77.1998C126.748 77.0583 126.702 76.9038 126.689 76.7453C126.676 76.5869 126.697 76.4275 126.749 76.2766L127.259 74.8194C127.354 74.5677 127.524 74.3476 127.748 74.1854C127.971 74.0233 128.24 73.926 128.52 73.9052Z" fill="#B55B52"/>
<path d="M141.504 78.3491C141.425 77.2133 141.266 76.0839 141.028 74.9685C140.798 73.8673 140.502 72.7794 140.142 71.71C139.957 71.1805 139.762 70.6511 139.552 70.1261C139.443 69.8636 139.338 69.5966 139.219 69.3341C139.1 69.0716 138.986 68.8272 138.824 68.5104C138.539 67.9043 138.014 67.4298 137.363 67.1909C136.711 66.9519 135.987 66.9678 135.348 67.2351C134.709 67.5025 134.207 67.9995 133.952 68.6175C133.697 69.2355 133.71 69.9244 133.988 70.5334L134.04 70.6646L134.297 71.2665L134.568 71.9273C134.749 72.3798 134.911 72.8324 135.068 73.285C135.387 74.1901 135.663 75.1178 135.911 76.041C136.158 76.9643 136.334 77.8965 136.477 78.8198C136.506 78.9963 136.525 79.1682 136.549 79.3447L136.501 79.3131C135.892 78.8831 135.282 78.4079 134.673 77.9146L132.841 76.4212L132.807 76.394C132.571 76.2044 132.272 76.0989 131.963 76.0956C131.653 76.0924 131.352 76.1916 131.112 76.3762C130.871 76.5608 130.705 76.8193 130.643 77.1075C130.58 77.3956 130.625 77.6954 130.77 77.9554C131.187 78.6848 131.647 79.3918 132.146 80.0734C132.643 80.7606 133.18 81.4209 133.755 82.051C134.054 82.3769 134.378 82.6937 134.707 83.015C135.091 83.368 135.51 83.6847 135.958 83.9608C136.247 84.139 136.553 84.2905 136.872 84.4134C137.362 84.605 137.891 84.6885 138.419 84.6578C138.812 84.6346 139.196 84.541 139.552 84.3817C139.912 84.2117 140.235 83.9783 140.504 83.6938C140.883 83.2906 141.162 82.8109 141.318 82.2909C141.357 82.1811 141.381 82.067 141.39 81.9515V81.8157C141.525 80.6649 141.563 79.5057 141.504 78.3491Z" fill="#B55B52"/>
<path d="M134.233 64.1064C137.089 64.5228 138.227 65.3465 140.554 70.7908C139.497 72.8227 134.547 74.7642 134.547 74.7642C134.547 74.7642 131.282 67.7133 134.233 64.1064Z" fill="#263238"/>
<path d="M117.249 90.893C123.09 91.507 128.984 91.4964 134.823 90.8614C134.884 90.8527 134.942 90.8305 134.993 90.7967C135.044 90.7629 135.086 90.7184 135.115 90.6666C135.145 90.6148 135.161 90.5572 135.163 90.4983C135.165 90.4395 135.153 90.3809 135.127 90.3273C134.984 90.0105 134.842 89.6892 134.704 89.3679C134.674 89.2967 134.621 89.2365 134.552 89.1965C134.484 89.1565 134.403 89.1388 134.323 89.1461C128.709 89.7367 123.044 89.7367 117.43 89.1461C117.379 89.1418 117.329 89.1471 117.281 89.1617C117.233 89.1763 117.189 89.2 117.15 89.2312C117.112 89.2624 117.081 89.3006 117.059 89.3436C117.036 89.3865 117.023 89.4332 117.02 89.481C116.987 89.8159 116.949 90.1463 116.915 90.4767C116.902 90.5738 116.929 90.6722 116.992 90.7502C117.054 90.8282 117.147 90.8795 117.249 90.893Z" fill="#263238"/>
<path d="M160.706 170.625C164.114 170.376 166.418 168.15 166.17 165.796C166.037 164.493 170.406 164.38 170.406 164.38C169.716 168.408 170.583 168.982 170.882 170.023C171.182 171.064 171.097 172.214 170.192 172.236C169.112 172.263 168.607 172.064 167.26 172.114C165.689 172.173 163.99 172.232 161.196 172.236C160.063 172.241 159.192 170.752 160.706 170.625Z" fill="#022B67"/>
<path d="M155.727 94.7217C155.727 94.7217 156.336 113.602 159.23 127.826C159.915 139.865 165.894 166.33 165.894 166.33C167.386 166.665 168.941 166.651 170.425 166.29C170.425 166.29 173.448 146.956 170.425 127.623C172.634 107.357 171.882 94.7217 171.882 94.7217H155.727Z" fill="#263238"/>
<path opacity="0.2" d="M171.99 104.131C171.886 109.798 171.514 117.821 170.443 127.637C170.667 129.086 170.848 130.543 170.986 131.987C163.579 120.333 161.837 101.914 171.99 104.131Z" fill="black"/>
<path d="M196.415 164.417C195.168 163.148 194.111 161.723 193.273 160.181C193.273 160.181 189.374 161.086 190.141 162.163C191.531 164.104 192.207 168.087 190.417 170.227C189.394 171.445 191.012 171.649 192.078 171.133C193.777 170.3 193.706 169.992 194.591 168.621C195.344 167.444 195.643 166.983 196.681 166.48C197.538 166.041 197.129 165.227 196.415 164.417Z" fill="#022B67"/>
<path d="M161.613 94.7217C161.613 94.7217 168.182 120.97 172.323 132.166C176.674 143.933 189.459 162.094 189.935 162.877C191.644 162.425 193.167 161.877 194.181 160.931C194.181 160.931 189.312 142.091 183.814 129.311C181.72 102.651 174.66 94.7217 174.66 94.7217H161.613Z" fill="#263238"/>
<path d="M142.385 70.284L142.075 68.7453C141.96 68.1878 141.694 67.6683 141.304 67.2383L140.571 66.4237C140.335 66.1626 140.009 65.9885 139.652 65.9315C139.295 65.8745 138.928 65.9381 138.615 66.1114L137.663 66.6499C137.485 66.748 137.33 66.8787 137.206 67.0344C137.082 67.1901 136.992 67.3677 136.941 67.5569C136.89 67.746 136.879 67.9429 136.909 68.1361C136.939 68.3292 137.009 68.5148 137.115 68.6819L137.591 69.4649C137.591 69.4649 138.681 71.7865 140.552 72.755L141.028 72.4337C141.416 72.2017 141.741 71.8863 141.976 71.5128C142.212 71.1394 142.352 70.7184 142.385 70.284Z" fill="#7F3E3B"/>
<path d="M159.624 72.5953C159.286 72.4179 158.914 72.3057 158.529 72.2652C158.145 72.2247 157.756 72.2566 157.384 72.3592C157.013 72.4617 156.667 72.6329 156.365 72.8629C156.063 73.0929 155.812 73.3772 155.626 73.6995C155.626 73.6724 155.602 73.7312 155.583 73.7538L155.507 73.8625L155.331 74.0978C155.212 74.2562 155.088 74.4191 154.955 74.5775C154.688 74.8943 154.412 75.2111 154.122 75.4826C153.562 76.0582 152.938 76.5741 152.261 77.0213C151.626 77.4389 150.932 77.7681 150.2 77.9989C149.838 78.1067 149.469 78.1914 149.095 78.2523C149.027 78.2569 148.959 78.2569 148.891 78.2523C148.723 78.1425 148.564 78.0215 148.415 77.8902C148.081 77.5951 147.763 77.2839 147.463 76.958C146.825 76.2791 146.211 75.5098 145.592 74.7359C144.364 73.1791 143.16 71.5227 141.955 69.9026L141.932 69.8709C141.725 69.6008 141.425 69.4094 141.083 69.3311C140.742 69.2529 140.383 69.2928 140.07 69.4438C139.757 69.5948 139.51 69.8469 139.375 70.155C139.24 70.463 139.225 70.8068 139.333 71.1245C140.035 73.1112 140.891 75.0458 141.893 76.9127C142.408 77.8793 142.977 78.8189 143.598 79.7276C143.926 80.1802 144.278 80.6599 144.692 81.1396C145.169 81.7013 145.725 82.1978 146.344 82.615C146.873 82.9623 147.476 83.1955 148.11 83.2983C148.223 83.3165 148.338 83.3271 148.453 83.33H148.629H148.986C149.157 83.33 149.329 83.33 149.5 83.33C150.188 83.3065 150.873 83.2263 151.547 83.0902C152.88 82.815 154.157 82.3334 155.326 81.6646C156.452 81.0304 157.483 80.2557 158.392 79.3611C158.835 78.9308 159.253 78.4775 159.644 78.0034C159.839 77.7635 160.024 77.5146 160.21 77.2567L160.477 76.8539L160.61 76.6412L160.767 76.3742C161.136 75.7278 161.224 74.9692 161.01 74.2622C160.796 73.5551 160.299 72.9564 159.624 72.5953Z" fill="#7F3E3B"/>
<path d="M154.952 76.3537C155.023 77.8879 152.472 81.4405 155.618 83.4996C155.033 84.7487 154.533 93.2206 155.728 94.7367C157.465 95.9495 166.866 95.7142 174.663 94.7367C174.991 91.6728 173.235 85.328 175.391 75.4305C175.511 74.8888 175.51 74.3293 175.387 73.7882C175.264 73.2471 175.023 72.7367 174.679 72.2901C174.335 71.8436 173.896 71.4709 173.391 71.1964C172.885 70.9218 172.324 70.7516 171.745 70.6967C171.088 70.6333 170.398 70.579 169.684 70.5473C167.201 70.3774 164.708 70.3774 162.225 70.5473C161.421 70.6152 160.588 70.7148 159.793 70.8189C158.408 71.0063 157.145 71.6765 156.25 72.6993C155.356 73.7222 154.893 75.0246 154.952 76.3537Z" fill="#022B67"/>
<path d="M169.933 62.5635C169.338 64.8263 168.757 68.5644 169.704 70.5466C169.704 70.5466 165.649 71.0671 161.136 74.502C160.37 71.0535 161.983 70.5693 161.983 70.5693C163.887 70.1529 164.164 67.9761 164.164 66.279L169.933 62.5635Z" fill="#7F3E3B"/>
<path opacity="0.2" d="M164.128 66.2795L167.417 64.166C167.447 64.6442 167.345 65.1215 167.122 65.5508C166.43 66.7844 165.302 67.746 163.938 68.2662C164.073 67.612 164.137 66.9462 164.128 66.2795Z" fill="black"/>
<path d="M171.477 58.3773C170.525 62.0883 170.225 63.6768 167.912 65.2743C164.432 67.6729 159.939 65.7812 159.715 61.8801C159.51 58.3682 161.076 52.8923 165.141 52.0369C169.206 51.1816 172.41 54.6663 171.477 58.3773Z" fill="#7F3E3B"/>
<path d="M170.635 60.5671C168.955 58.4129 169.778 56.7023 170.635 56.0913C167.198 55.0368 163.105 55.8017 162.172 53.8285C162.795 51.0272 163.757 48.3978 165.394 46.1848C167.494 43.3608 176.533 48.09 178.223 53.5841C178.799 55.417 171.64 62.7258 170.635 60.5671Z" fill="#263238"/>
<path d="M165.17 58.7746C165.113 59.0824 164.894 59.2996 164.694 59.2634C164.494 59.2272 164.36 58.9511 164.418 58.6479C164.475 58.3447 164.689 58.1229 164.894 58.1591C165.098 58.1954 165.241 58.4714 165.17 58.7746Z" fill="#263238"/>
<path d="M161.226 58.1643C161.169 58.4675 160.95 58.6892 160.75 58.653C160.55 58.6168 160.417 58.3408 160.474 58.0376C160.531 57.7343 160.75 57.5126 160.95 57.5488C161.15 57.585 161.283 57.8611 161.226 58.1643Z" fill="#263238"/>
<path d="M161.033 57.5803L160.305 57.2363C160.305 57.2363 160.59 57.879 161.033 57.5803Z" fill="#263238"/>
<path d="M162.184 58.4131C161.768 59.0604 161.262 59.6511 160.68 60.169C160.822 60.3079 160.995 60.4155 161.185 60.4843C161.376 60.5531 161.581 60.5814 161.784 60.5673L162.184 58.4131Z" fill="#630F0F"/>
<path d="M171.763 61.8345C171.616 62.1544 171.399 62.4409 171.126 62.675C170.854 62.9091 170.532 63.0854 170.182 63.1922C169.288 63.4275 168.85 62.4953 169.102 61.5539C169.33 60.7076 170.054 59.5627 170.958 59.7437C171.863 59.9247 172.172 61.0018 171.763 61.8345Z" fill="#7F3E3B"/>
<path d="M171.417 63.971C171.417 64.2028 171.345 64.4294 171.209 64.6222C171.074 64.8149 170.881 64.9651 170.656 65.0539C170.431 65.1426 170.183 65.1658 169.943 65.1206C169.704 65.0753 169.485 64.9637 169.312 64.7998C169.14 64.6359 169.022 64.427 168.975 64.1996C168.927 63.9723 168.952 63.7366 169.045 63.5224C169.138 63.3082 169.296 63.1252 169.499 62.9964C169.702 62.8676 169.94 62.7988 170.184 62.7988C170.511 62.7988 170.825 62.9223 171.056 63.1421C171.287 63.362 171.417 63.6601 171.417 63.971Z" fill="#022B67"/>
<path d="M166.261 57.6122C166.236 57.6051 166.212 57.593 166.193 57.5766C166.173 57.5602 166.157 57.5399 166.146 57.5171C166.044 57.3103 165.892 57.129 165.702 56.9876C165.513 56.8463 165.292 56.7487 165.056 56.7025C165.007 56.6968 164.961 56.6727 164.93 56.6355C164.899 56.5982 164.884 56.5507 164.89 56.5034C164.897 56.4554 164.923 56.4118 164.963 56.3815C165.003 56.3512 165.053 56.3365 165.104 56.3405C165.404 56.3924 165.686 56.5121 165.927 56.6892C166.168 56.8664 166.361 57.096 166.489 57.3587C166.5 57.3798 166.507 57.4027 166.509 57.4263C166.511 57.4499 166.508 57.4735 166.5 57.4959C166.492 57.5183 166.479 57.5389 166.462 57.5565C166.446 57.5742 166.426 57.5885 166.403 57.5986C166.36 57.6206 166.308 57.6255 166.261 57.6122Z" fill="#263238"/>
<path d="M160.044 56.1597C160.02 56.1572 159.997 56.1498 159.976 56.1381C159.956 56.1264 159.938 56.1106 159.925 56.0918C159.894 56.054 159.88 56.0061 159.886 55.9586C159.892 55.9111 159.918 55.8679 159.958 55.8384C160.196 55.6572 160.476 55.5331 160.775 55.4764C161.074 55.4197 161.383 55.4321 161.676 55.5125C161.724 55.5288 161.763 55.5624 161.785 55.6061C161.807 55.6498 161.81 55.7 161.793 55.7456C161.776 55.7912 161.74 55.8285 161.694 55.8493C161.649 55.8701 161.596 55.8727 161.548 55.8565C161.315 55.7957 161.071 55.7887 160.835 55.8359C160.599 55.8832 160.378 55.9833 160.191 56.128C160.17 56.1431 160.146 56.1538 160.121 56.1592C160.096 56.1647 160.069 56.1649 160.044 56.1597Z" fill="#263238"/>
<path d="M164.996 58.192L164.268 57.8525C164.268 57.8525 164.553 58.4906 164.996 58.192Z" fill="#263238"/>
<path opacity="0.2" d="M175.014 77.3488C174.635 79.4528 174.404 81.5785 174.324 83.7118C172.529 81.3449 170.492 77.0546 170.606 75.0498L175.014 77.3488Z" fill="black"/>
<path d="M163.914 83.8104L162.295 81.7422L159.32 84.8829C159.32 84.8829 161.3 86.58 163.376 86.752L163.676 86.2723C163.914 85.9079 164.06 85.4956 164.101 85.0681C164.143 84.6407 164.078 84.21 163.914 83.8104Z" fill="#7F3E3B"/>
<path d="M159.309 81.5973L158.429 82.8147C158.237 83.0812 158.163 83.4088 158.224 83.7265C158.284 84.0442 158.474 84.3264 158.752 84.5118L159.319 84.8875L162.294 81.7467L160.885 81.1448C160.608 81.0348 160.299 81.0199 160.012 81.1024C159.724 81.185 159.476 81.3599 159.309 81.5973Z" fill="#7F3E3B"/>
<path d="M177.29 80.8649C177.081 79.5992 176.793 78.3464 176.429 77.1131C176.248 76.5022 176.053 75.9003 175.843 75.3029C175.738 74.9997 175.634 74.701 175.519 74.3978C175.405 74.0946 175.286 73.8185 175.134 73.4655C174.859 72.7711 174.305 72.2092 173.594 71.9032C172.883 71.5973 172.073 71.5724 171.343 71.834C170.612 72.0957 170.021 72.6224 169.699 73.2984C169.378 73.9744 169.351 74.7443 169.627 75.4387L169.665 75.5382L169.931 76.2759L170.207 77.0588C170.388 77.5838 170.56 78.1133 170.717 78.6473C171.04 79.7063 171.312 80.7698 171.54 81.8152C171.756 82.8227 171.896 83.8436 171.959 84.87C171.98 85.3622 171.964 85.8553 171.911 86.3454H171.835C170.981 86.2112 170.139 86.0145 169.317 85.757C168.432 85.4991 167.532 85.1868 166.628 84.8519C165.723 84.517 164.805 84.1776 163.915 83.8517H163.857C163.533 83.7351 163.177 83.7306 162.85 83.8389C162.522 83.9473 162.246 84.1616 162.068 84.4444C161.891 84.7271 161.823 85.0603 161.878 85.3855C161.933 85.7107 162.106 86.0072 162.368 86.2232C163.165 86.8679 163.997 87.4722 164.862 88.0334C165.734 88.6055 166.636 89.1342 167.565 89.6174C168.565 90.1438 169.617 90.5729 170.707 90.8981C171.382 91.0969 172.081 91.2125 172.787 91.242C173.277 91.2621 173.766 91.2102 174.239 91.0882C174.912 90.9167 175.53 90.5868 176.034 90.1288C176.248 89.9257 176.421 89.6863 176.543 89.4228L176.586 89.3368C177.22 87.9256 177.555 86.4091 177.571 84.8745C177.605 83.5327 177.511 82.1906 177.29 80.8649Z" fill="#7F3E3B"/>
<path d="M161.029 61.4816C162.415 61.386 163.806 61.3981 165.19 61.5178C164.761 62.2374 164.042 62.8031 162.476 62.7035C160.91 62.6039 161.029 61.4816 161.029 61.4816Z" fill="#263238"/>
<path d="M163.267 62.1608C162.673 62.0963 162.072 62.187 161.529 62.4233C161.814 62.5964 162.143 62.6919 162.481 62.6994C163.073 62.7648 163.672 62.6756 164.214 62.4414C163.931 62.2685 163.603 62.1716 163.267 62.1608Z" fill="#630F0F"/>
<path d="M161.166 61.4676C161.195 61.566 161.253 61.6547 161.332 61.7242C161.411 61.7937 161.508 61.8411 161.613 61.8613C162.519 61.9145 163.427 61.9054 164.331 61.8342C164.47 61.8379 164.608 61.8108 164.733 61.755C164.859 61.6992 164.969 61.6163 165.055 61.5129C163.761 61.4159 162.462 61.4008 161.166 61.4676Z" fill="white"/>
<path d="M160.747 70.8496C160.704 70.849 160.663 70.8328 160.633 70.8043C160.619 70.7895 160.607 70.7727 160.599 70.7545C160.595 70.7367 160.595 70.7181 160.599 70.7002C160.599 70.6603 160.614 70.6216 160.642 70.5916C160.658 70.5785 160.675 70.5678 160.694 70.5599C160.733 70.5464 160.775 70.5464 160.813 70.5599C160.833 70.5678 160.85 70.5785 160.866 70.5916C160.881 70.6053 160.893 70.6224 160.899 70.6414C160.904 70.6607 160.904 70.6809 160.899 70.7002C160.903 70.7181 160.903 70.7367 160.899 70.7545C160.893 70.7736 160.881 70.7907 160.866 70.8043C160.85 70.8194 160.832 70.8312 160.811 70.839C160.791 70.8468 160.769 70.8504 160.747 70.8496Z" fill="white"/>
<path d="M159.46 78.8826C159.46 78.8426 159.476 78.8041 159.506 78.7754C159.535 78.7467 159.575 78.7299 159.617 78.7288C159.659 78.7288 159.699 78.7445 159.728 78.7725C159.758 78.8005 159.774 78.8385 159.774 78.8781C159.774 78.9181 159.758 78.9566 159.728 78.9853C159.699 79.0141 159.659 79.0308 159.617 79.032C159.575 79.032 159.535 79.0162 159.506 78.9882C159.477 78.9602 159.46 78.9222 159.46 78.8826ZM160.298 78.8193C160.293 78.7999 160.292 78.7799 160.295 78.7603C160.299 78.7406 160.306 78.7218 160.317 78.705C160.328 78.6881 160.343 78.6735 160.36 78.6621C160.377 78.6506 160.396 78.6425 160.417 78.6382C160.458 78.6311 160.5 78.6388 160.535 78.6597C160.57 78.6807 160.596 78.7134 160.607 78.7514C160.614 78.7909 160.606 78.8315 160.583 78.8651C160.56 78.8986 160.524 78.9227 160.483 78.9324H160.412C160.38 78.9298 160.35 78.9181 160.325 78.8987C160.3 78.8792 160.283 78.8531 160.274 78.8238L160.298 78.8193ZM158.741 78.9007C158.721 78.8946 158.703 78.8848 158.687 78.8719C158.672 78.859 158.659 78.8432 158.649 78.8255C158.64 78.8079 158.635 78.7886 158.633 78.7689C158.632 78.7492 158.635 78.7294 158.641 78.7107C158.648 78.6913 158.658 78.6735 158.672 78.6581C158.686 78.6428 158.703 78.6302 158.722 78.6214C158.741 78.6125 158.762 78.6074 158.783 78.6064C158.805 78.6054 158.826 78.6085 158.846 78.6156C158.885 78.6289 158.917 78.6564 158.935 78.692C158.953 78.7276 158.955 78.7685 158.941 78.8057C158.931 78.8352 158.911 78.861 158.884 78.8796C158.858 78.8982 158.826 78.9087 158.794 78.9098L158.741 78.9007ZM161.121 78.5975C161.105 78.5609 161.106 78.5199 161.122 78.4834C161.138 78.4469 161.168 78.418 161.207 78.4029C161.245 78.388 161.289 78.3881 161.327 78.4034C161.365 78.4187 161.396 78.4478 161.412 78.4844C161.428 78.5204 161.428 78.561 161.413 78.5974C161.398 78.6338 161.368 78.6631 161.331 78.679H161.269C161.233 78.6884 161.194 78.686 161.159 78.672C161.125 78.658 161.096 78.6334 161.078 78.602L161.121 78.5975ZM157.994 78.4436C157.979 78.4298 157.967 78.4132 157.959 78.3949C157.951 78.3767 157.947 78.3571 157.947 78.3373C157.947 78.3175 157.951 78.2979 157.959 78.2797C157.967 78.2614 157.979 78.2448 157.994 78.2309C158.009 78.2168 158.026 78.2057 158.045 78.198C158.064 78.1904 158.085 78.1864 158.106 78.1864C158.127 78.1864 158.147 78.1904 158.166 78.198C158.186 78.2057 158.203 78.2168 158.218 78.2309C158.233 78.2445 158.245 78.261 158.254 78.2793C158.262 78.2976 158.267 78.3173 158.267 78.3373C158.267 78.3573 158.262 78.377 158.254 78.3953C158.245 78.4136 158.233 78.4301 158.218 78.4436C158.204 78.4585 158.187 78.4703 158.168 78.4781C158.149 78.4859 158.129 78.4896 158.108 78.4889C158.079 78.4962 158.048 78.4945 158.019 78.4839C157.991 78.4733 157.967 78.4545 157.951 78.4301L157.994 78.4436ZM161.878 78.249C161.867 78.2325 161.859 78.2141 161.856 78.1947C161.853 78.1754 161.853 78.1556 161.858 78.1366C161.863 78.1175 161.872 78.0996 161.885 78.084C161.897 78.0683 161.913 78.0552 161.93 78.0454C161.948 78.0348 161.967 78.0277 161.988 78.0245C162.008 78.0213 162.029 78.022 162.049 78.0267C162.069 78.0313 162.088 78.0398 162.104 78.0516C162.121 78.0633 162.134 78.0782 162.145 78.0952C162.156 78.1117 162.163 78.1302 162.167 78.1495C162.17 78.1688 162.169 78.1886 162.164 78.2077C162.159 78.2267 162.151 78.2446 162.138 78.2603C162.126 78.2759 162.11 78.2891 162.092 78.2988C162.068 78.313 162.04 78.3208 162.011 78.3215C161.979 78.3305 161.944 78.3287 161.913 78.3163C161.882 78.304 161.856 78.2818 161.84 78.2536L161.878 78.249ZM162.573 77.7965C162.548 77.7645 162.537 77.7243 162.542 77.6846C162.547 77.6449 162.569 77.6087 162.602 77.5838C162.618 77.5714 162.636 77.5623 162.656 77.5569C162.676 77.5516 162.697 77.5501 162.717 77.5527C162.738 77.5552 162.757 77.5617 162.775 77.5717C162.793 77.5817 162.808 77.5951 162.821 77.6109C162.846 77.6417 162.858 77.6807 162.853 77.7197C162.849 77.7586 162.829 77.7943 162.797 77.8191C162.768 77.8403 162.733 77.8515 162.697 77.8508C162.668 77.8596 162.637 77.8604 162.607 77.8532C162.578 77.846 162.551 77.8311 162.53 77.8101L162.573 77.7965ZM157.508 77.715C157.491 77.6832 157.486 77.6465 157.495 77.6116C157.504 77.5767 157.525 77.5459 157.556 77.5249C157.575 77.5177 157.596 77.5141 157.617 77.5145C157.638 77.5149 157.658 77.5192 157.677 77.5272C157.696 77.5352 157.713 77.5467 157.728 77.5611C157.742 77.5755 157.753 77.5924 157.761 77.6109C157.775 77.6482 157.773 77.6892 157.757 77.7255C157.74 77.7617 157.709 77.7904 157.67 77.8055H157.613C157.583 77.8068 157.554 77.8003 157.528 77.7867C157.502 77.7732 157.48 77.7531 157.466 77.7286L157.508 77.715ZM163.22 77.2625C163.192 77.2338 163.176 77.1957 163.176 77.1561C163.176 77.1165 163.192 77.0784 163.22 77.0498C163.25 77.0224 163.291 77.0071 163.332 77.0071C163.374 77.0071 163.414 77.0224 163.444 77.0498C163.459 77.0637 163.471 77.0802 163.479 77.0985C163.487 77.1167 163.491 77.1363 163.491 77.1561C163.491 77.1759 163.487 77.1955 163.479 77.2138C163.471 77.232 163.459 77.2486 163.444 77.2625C163.43 77.2758 163.412 77.2863 163.394 77.2933C163.375 77.3003 163.355 77.3036 163.335 77.3032C163.309 77.3153 163.281 77.3209 163.252 77.3193C163.224 77.3177 163.197 77.3091 163.173 77.2941L163.22 77.2625ZM157.313 76.8823C157.309 76.8422 157.322 76.8022 157.349 76.7708C157.375 76.7395 157.414 76.7194 157.456 76.7149C157.497 76.7123 157.538 76.7249 157.57 76.7502C157.602 76.7755 157.623 76.8114 157.627 76.8506C157.63 76.8704 157.628 76.8904 157.623 76.9095C157.617 76.9286 157.607 76.9464 157.593 76.9617C157.58 76.977 157.563 76.9894 157.545 76.9984C157.526 77.0073 157.505 77.0125 157.485 77.0136C157.464 77.0229 157.441 77.0277 157.417 77.0276C157.394 77.0275 157.371 77.0225 157.35 77.013C157.329 77.0034 157.311 76.9896 157.296 76.9725C157.282 76.9554 157.271 76.9354 157.266 76.914L157.313 76.8823ZM163.82 76.7013C163.805 76.6874 163.794 76.6708 163.786 76.6526C163.777 76.6343 163.773 76.6147 163.773 76.5949C163.773 76.5752 163.777 76.5556 163.786 76.5373C163.794 76.519 163.805 76.5025 163.82 76.4886C163.835 76.4745 163.852 76.4633 163.871 76.4557C163.891 76.448 163.911 76.4441 163.932 76.4441C163.953 76.4441 163.973 76.448 163.993 76.4557C164.012 76.4633 164.029 76.4745 164.044 76.4886C164.059 76.5025 164.07 76.519 164.078 76.5373C164.087 76.5556 164.091 76.5752 164.091 76.5949C164.091 76.6147 164.087 76.6343 164.078 76.6526C164.07 76.6708 164.059 76.6874 164.044 76.7013C164.029 76.7162 164.012 76.728 163.992 76.7359C163.972 76.7437 163.951 76.7473 163.93 76.7465C163.904 76.7568 163.877 76.7609 163.849 76.7586C163.822 76.7562 163.796 76.7474 163.773 76.733L163.82 76.7013ZM157.461 76.2171C157.42 76.2125 157.383 76.1929 157.357 76.1624C157.331 76.1319 157.319 76.0931 157.323 76.0541C157.324 76.0343 157.329 76.0148 157.339 75.997C157.348 75.9793 157.361 75.9635 157.377 75.9508C157.393 75.938 157.412 75.9286 157.432 75.923C157.452 75.9174 157.473 75.9158 157.494 75.9184C157.535 75.9229 157.572 75.9425 157.598 75.973C157.624 76.0035 157.636 76.0423 157.632 76.0813C157.629 76.1185 157.61 76.1531 157.581 76.1782C157.552 76.2033 157.514 76.2172 157.475 76.2171H157.461ZM164.391 76.1084C164.377 76.0949 164.365 76.0788 164.357 76.0609C164.349 76.043 164.345 76.0238 164.345 76.0043C164.345 75.9849 164.349 75.9657 164.357 75.9478C164.365 75.9299 164.377 75.9138 164.391 75.9003C164.421 75.8729 164.462 75.8576 164.503 75.8576C164.545 75.8576 164.585 75.8729 164.615 75.9003C164.63 75.9142 164.642 75.9307 164.65 75.949C164.658 75.9672 164.662 75.9868 164.662 76.0066C164.662 76.0264 164.658 76.046 164.65 76.0643C164.642 76.0825 164.63 76.0991 164.615 76.113C164.601 76.1305 164.583 76.1445 164.563 76.154C164.542 76.1634 164.519 76.168 164.496 76.1673C164.471 76.1772 164.443 76.1799 164.416 76.175C164.389 76.1702 164.364 76.1581 164.344 76.1401L164.391 76.1084ZM164.939 75.502C164.922 75.4897 164.909 75.4743 164.898 75.4569C164.888 75.4395 164.882 75.4202 164.88 75.4004C164.877 75.3806 164.879 75.3606 164.885 75.3415C164.892 75.3224 164.902 75.3046 164.915 75.2893C164.93 75.2752 164.947 75.264 164.966 75.2564C164.985 75.2487 165.006 75.2448 165.027 75.2448C165.048 75.2448 165.068 75.2487 165.087 75.2564C165.107 75.264 165.124 75.2752 165.139 75.2893C165.153 75.3032 165.165 75.3198 165.173 75.338C165.181 75.3563 165.185 75.3759 165.185 75.3957C165.185 75.4154 165.181 75.435 165.173 75.4533C165.165 75.4716 165.153 75.4881 165.139 75.502C165.124 75.519 165.106 75.5327 165.086 75.5421C165.065 75.5515 165.043 75.5563 165.02 75.5563C164.998 75.5618 164.975 75.5627 164.953 75.5588C164.93 75.5549 164.909 75.5463 164.891 75.5337L164.939 75.502ZM157.556 75.4567C157.536 75.4526 157.516 75.4444 157.5 75.4329C157.483 75.4214 157.468 75.4067 157.458 75.3897C157.447 75.3728 157.44 75.3539 157.437 75.3343C157.435 75.3147 157.436 75.2948 157.442 75.2757C157.446 75.2564 157.455 75.2381 157.467 75.2221C157.479 75.206 157.494 75.1924 157.512 75.1823C157.53 75.1721 157.55 75.1655 157.571 75.1629C157.591 75.1603 157.612 75.1617 157.632 75.1671C157.673 75.1767 157.707 75.2012 157.729 75.2351C157.75 75.2691 157.756 75.3097 157.746 75.3481C157.738 75.3804 157.718 75.4091 157.691 75.4296C157.663 75.4501 157.629 75.4613 157.594 75.4613H157.556V75.4567ZM165.443 74.9182C165.414 74.8896 165.398 74.8515 165.398 74.8119C165.398 74.7722 165.414 74.7341 165.443 74.7055C165.47 74.6749 165.509 74.6554 165.55 74.6512C165.592 74.647 165.634 74.6583 165.667 74.6829C165.682 74.6968 165.694 74.7133 165.702 74.7316C165.71 74.7498 165.714 74.7694 165.714 74.7892C165.714 74.809 165.71 74.8286 165.702 74.8469C165.694 74.8651 165.682 74.8817 165.667 74.8956C165.653 74.9125 165.635 74.9262 165.614 74.9356C165.593 74.945 165.571 74.9499 165.548 74.9499C165.526 74.9532 165.504 74.952 165.483 74.9466C165.461 74.9411 165.441 74.9315 165.424 74.9182H165.443ZM157.789 74.6874C157.769 74.6813 157.751 74.6715 157.736 74.6585C157.72 74.6455 157.707 74.6297 157.699 74.6119C157.69 74.5941 157.685 74.5747 157.684 74.555C157.683 74.5353 157.687 74.5157 157.694 74.4973C157.701 74.4784 157.712 74.461 157.726 74.4461C157.74 74.4313 157.757 74.4193 157.776 74.4108C157.795 74.4024 157.816 74.3977 157.837 74.397C157.858 74.3963 157.879 74.3996 157.899 74.4068C157.918 74.4138 157.936 74.4244 157.951 74.4381C157.966 74.4517 157.978 74.468 157.987 74.4861C157.995 74.5042 158 74.5237 158 74.5435C158.001 74.5633 157.997 74.583 157.989 74.6014C157.978 74.6296 157.957 74.6538 157.931 74.6708C157.905 74.6877 157.873 74.6967 157.842 74.6964C157.817 74.7024 157.792 74.6992 157.77 74.6874H157.789ZM165.976 74.2982C165.962 74.2843 165.95 74.2677 165.942 74.2495C165.934 74.2312 165.93 74.2116 165.93 74.1918C165.93 74.1721 165.934 74.1525 165.942 74.1342C165.95 74.1159 165.962 74.0994 165.976 74.0855C166.003 74.0549 166.042 74.0354 166.083 74.0312C166.125 74.027 166.167 74.0383 166.2 74.0629C166.215 74.0768 166.227 74.0933 166.235 74.1116C166.243 74.1298 166.247 74.1494 166.247 74.1692C166.247 74.189 166.243 74.2086 166.235 74.2269C166.227 74.2451 166.215 74.2617 166.2 74.2756C166.186 74.2925 166.168 74.3062 166.147 74.3156C166.127 74.325 166.104 74.3299 166.081 74.3299C166.059 74.3338 166.037 74.333 166.015 74.3275C165.994 74.322 165.974 74.312 165.957 74.2982H165.976ZM158.108 73.9497C158.089 73.9416 158.071 73.9297 158.057 73.9147C158.043 73.8998 158.032 73.8821 158.025 73.863C158.018 73.8438 158.016 73.8235 158.018 73.8033C158.02 73.7832 158.026 73.7637 158.037 73.7461C158.055 73.7108 158.088 73.6838 158.127 73.6711C158.166 73.6584 158.209 73.6609 158.246 73.6782C158.284 73.6966 158.312 73.7282 158.325 73.7662C158.339 73.8043 158.336 73.8457 158.318 73.8818C158.303 73.9061 158.283 73.9265 158.258 73.9408C158.233 73.9551 158.204 73.9628 158.175 73.9633C158.145 73.9668 158.116 73.9621 158.089 73.9497H158.108ZM166.514 73.6827C166.499 73.6688 166.488 73.6523 166.48 73.634C166.472 73.6158 166.467 73.5962 166.467 73.5764C166.467 73.5566 166.472 73.537 166.48 73.5187C166.488 73.5005 166.499 73.4839 166.514 73.47C166.529 73.4559 166.546 73.4447 166.566 73.4371C166.585 73.4295 166.605 73.4255 166.626 73.4255C166.647 73.4255 166.668 73.4295 166.687 73.4371C166.706 73.4447 166.723 73.4559 166.738 73.47C166.753 73.4839 166.765 73.5005 166.773 73.5187C166.781 73.537 166.785 73.5566 166.785 73.5764C166.785 73.5962 166.781 73.6158 166.773 73.634C166.765 73.6523 166.753 73.6688 166.738 73.6827C166.723 73.6998 166.704 73.7135 166.682 73.7229C166.661 73.7322 166.638 73.7371 166.614 73.737C166.592 73.7364 166.569 73.7313 166.549 73.7219C166.528 73.7126 166.51 73.6992 166.495 73.6827H166.514ZM158.498 73.2302C158.464 73.208 158.439 73.1743 158.43 73.1357C158.42 73.0972 158.426 73.0566 158.446 73.022C158.469 72.9891 158.505 72.9658 158.545 72.9566C158.586 72.9474 158.629 72.953 158.665 72.9722C158.7 72.9944 158.724 73.0281 158.734 73.0666C158.744 73.1051 158.738 73.1457 158.717 73.1804C158.704 73.2023 158.684 73.2204 158.661 73.2331C158.637 73.2458 158.611 73.2526 158.584 73.2528C158.549 73.2589 158.513 73.2558 158.479 73.2437L158.498 73.2302ZM167.066 73.0672C167.052 73.0533 167.04 73.0368 167.032 73.0185C167.024 73.0003 167.02 72.9807 167.02 72.9609C167.02 72.9411 167.024 72.9215 167.032 72.9032C167.04 72.885 167.052 72.8684 167.066 72.8545C167.081 72.8399 167.098 72.8282 167.117 72.8201C167.137 72.8121 167.157 72.808 167.178 72.808C167.199 72.808 167.22 72.8121 167.239 72.8201C167.259 72.8282 167.276 72.8399 167.29 72.8545C167.319 72.8824 167.335 72.9197 167.335 72.9586C167.335 72.9975 167.319 73.0348 167.29 73.0627C167.275 73.0788 167.257 73.0917 167.237 73.1003C167.216 73.1089 167.194 73.1131 167.171 73.1125C167.149 73.1152 167.127 73.1139 167.106 73.1084C167.085 73.103 167.065 73.0936 167.047 73.0808L167.066 73.0672ZM158.974 72.5558C158.957 72.5446 158.943 72.5302 158.932 72.5135C158.921 72.4967 158.914 72.4781 158.911 72.4586C158.907 72.4391 158.909 72.4192 158.914 72.4001C158.919 72.3811 158.928 72.3632 158.941 72.3477C158.967 72.3157 159.004 72.2944 159.046 72.2885C159.088 72.2826 159.131 72.2924 159.165 72.316C159.197 72.3402 159.219 72.3751 159.225 72.4138C159.231 72.4525 159.222 72.4919 159.198 72.5242C159.183 72.5432 159.164 72.5588 159.142 72.5698C159.119 72.5808 159.095 72.5868 159.07 72.5875C159.048 72.5948 159.024 72.5969 159.001 72.5938C158.978 72.5906 158.955 72.5823 158.936 72.5694L158.974 72.5558ZM167.661 72.4834C167.647 72.4695 167.635 72.453 167.627 72.4347C167.619 72.4165 167.615 72.3969 167.615 72.3771C167.615 72.3573 167.619 72.3377 167.627 72.3194C167.635 72.3012 167.647 72.2846 167.661 72.2707C167.676 72.2566 167.693 72.2454 167.713 72.2378C167.732 72.2302 167.753 72.2262 167.773 72.2262C167.794 72.2262 167.815 72.2302 167.834 72.2378C167.853 72.2454 167.871 72.2566 167.885 72.2707C167.9 72.2846 167.912 72.3012 167.92 72.3194C167.928 72.3377 167.932 72.3573 167.932 72.3771C167.932 72.3969 167.928 72.4165 167.92 72.4347C167.912 72.453 167.9 72.4695 167.885 72.4834C167.856 72.51 167.816 72.5246 167.776 72.5242C167.75 72.5313 167.723 72.5326 167.696 72.5279C167.67 72.5232 167.645 72.5126 167.623 72.497L167.661 72.4834ZM168.271 71.9313C168.242 71.9027 168.226 71.8646 168.226 71.825C168.226 71.7853 168.242 71.7472 168.271 71.7186C168.285 71.7045 168.303 71.6933 168.322 71.6857C168.341 71.678 168.362 71.6741 168.383 71.6741C168.403 71.6741 168.424 71.678 168.443 71.6857C168.462 71.6933 168.48 71.7045 168.494 71.7186C168.509 71.7325 168.521 71.7491 168.529 71.7673C168.537 71.7856 168.541 71.8052 168.541 71.825C168.541 71.8447 168.537 71.8643 168.529 71.8826C168.521 71.9009 168.509 71.9174 168.494 71.9313C168.465 71.9544 168.428 71.9672 168.39 71.9675C168.364 71.9761 168.336 71.9785 168.308 71.9746C168.281 71.9706 168.255 71.9604 168.233 71.9449L168.271 71.9313ZM159.489 71.9313C159.474 71.9174 159.462 71.9009 159.454 71.8826C159.446 71.8643 159.442 71.8447 159.442 71.825C159.442 71.8052 159.446 71.7856 159.454 71.7673C159.462 71.7491 159.474 71.7325 159.489 71.7186C159.503 71.7045 159.521 71.6933 159.54 71.6857C159.559 71.678 159.58 71.6741 159.6 71.6741C159.621 71.6741 159.642 71.678 159.661 71.6857C159.68 71.6933 159.698 71.7045 159.712 71.7186C159.741 71.7472 159.757 71.7853 159.757 71.825C159.757 71.8646 159.741 71.9027 159.712 71.9313C159.698 71.9483 159.68 71.962 159.659 71.9714C159.639 71.9808 159.616 71.9856 159.593 71.9856C159.569 71.9872 159.545 71.9841 159.522 71.9763C159.499 71.9685 159.478 71.9563 159.46 71.9404L159.489 71.9313ZM168.918 71.4244C168.906 71.4084 168.898 71.3903 168.893 71.3711C168.889 71.352 168.888 71.3322 168.892 71.3129C168.895 71.2935 168.903 71.275 168.914 71.2585C168.925 71.2419 168.939 71.2275 168.956 71.2163C168.99 71.193 169.031 71.1832 169.073 71.1892C169.114 71.1951 169.15 71.2162 169.175 71.2479C169.2 71.2805 169.21 71.321 169.204 71.3607C169.198 71.4005 169.175 71.4364 169.142 71.4606C169.114 71.4784 169.08 71.4879 169.047 71.4878C169.016 71.4945 168.985 71.4929 168.955 71.4833C168.926 71.4737 168.9 71.4564 168.88 71.4335L168.918 71.4244ZM160.055 71.3385C160.04 71.3246 160.028 71.308 160.02 71.2897C160.012 71.2715 160.008 71.2519 160.008 71.2321C160.008 71.2123 160.012 71.1927 160.02 71.1745C160.028 71.1562 160.04 71.1396 160.055 71.1258C160.07 71.1117 160.087 71.1005 160.106 71.0928C160.125 71.0852 160.146 71.0813 160.167 71.0813C160.188 71.0813 160.208 71.0852 160.227 71.0928C160.247 71.1005 160.264 71.1117 160.279 71.1258C160.294 71.1396 160.305 71.1562 160.313 71.1745C160.321 71.1927 160.326 71.2123 160.326 71.2321C160.326 71.2519 160.321 71.2715 160.313 71.2897C160.305 71.308 160.294 71.3246 160.279 71.3385C160.249 71.3642 160.21 71.3787 160.169 71.3792C160.143 71.3857 160.116 71.3863 160.089 71.3808C160.063 71.3753 160.038 71.3639 160.017 71.3475L160.055 71.3385ZM169.618 70.9809C169.607 70.9638 169.6 70.9447 169.596 70.9249C169.593 70.905 169.594 70.8847 169.6 70.8653C169.605 70.8459 169.615 70.8276 169.627 70.8117C169.64 70.7958 169.657 70.7826 169.675 70.7728C169.693 70.7632 169.713 70.7571 169.734 70.7549C169.754 70.7526 169.775 70.7543 169.795 70.7598C169.815 70.7652 169.833 70.7744 169.85 70.7867C169.866 70.7991 169.879 70.8143 169.889 70.8316C169.91 70.8658 169.916 70.9065 169.905 70.9446C169.894 70.9828 169.868 71.0154 169.832 71.0352C169.806 71.042 169.778 71.042 169.751 71.0352C169.721 71.045 169.689 71.046 169.658 71.0379C169.627 71.0298 169.6 71.0131 169.58 70.99L169.618 70.9809Z" fill="white"/>
<path d="M170.484 70.7049C170.465 70.7097 170.445 70.7097 170.426 70.7049C170.407 70.697 170.39 70.6863 170.374 70.6732C170.359 70.6586 170.346 70.6418 170.336 70.6234C170.333 70.6039 170.333 70.5841 170.336 70.5646C170.337 70.5254 170.354 70.4881 170.384 70.4605C170.397 70.4449 170.415 70.4338 170.436 70.4288C170.465 70.418 170.496 70.4152 170.526 70.4208C170.557 70.4264 170.585 70.4402 170.607 70.4605C170.635 70.4886 170.651 70.5259 170.65 70.5646C170.655 70.5839 170.655 70.6041 170.65 70.6234C170.642 70.6416 170.631 70.6584 170.617 70.6732C170.598 70.6869 170.577 70.6968 170.554 70.7023C170.531 70.7077 170.507 70.7086 170.484 70.7049Z" fill="white"/>
<path d="M155.176 92.8575C154.476 94.0477 154.766 97.8673 155.961 99.492C163.03 99.8043 172.916 95.5819 175.791 96.3603C176.372 94.98 175.348 94.3917 175.315 93.3825C175.282 92.3733 175.158 91.2192 173.735 91.7533C172.312 92.2873 162.53 93.7762 155.176 92.8575Z" fill="#022B67"/>
<path opacity="0.5" d="M155.176 92.8575C154.476 94.0477 154.766 97.8673 155.961 99.492C163.03 99.8043 172.916 95.5819 175.791 96.3603C176.372 94.98 175.348 94.3917 175.315 93.3825C175.282 92.3733 175.158 91.2192 173.735 91.7533C172.312 92.2873 162.53 93.7762 155.176 92.8575Z" fill="white"/>
<path d="M149.973 0.738603C160.883 3.67119 168.908 14.4964 167.899 24.9098C167.247 31.6032 163.029 36.4908 157.203 38.3599C157.143 39.3776 157.425 40.3871 158.008 41.2427C158.008 41.2427 155.218 40.4145 154.223 39.0569C151.571 39.3912 148.875 39.1955 146.307 38.4821C135.393 35.5495 127.367 24.7243 128.381 14.3063C129.395 3.88842 139.058 -2.19851 149.973 0.738603Z" fill="#022B67"/>
<path opacity="0.7" d="M149.973 0.738603C160.883 3.67119 168.908 14.4964 167.899 24.9098C167.247 31.6032 163.029 36.4908 157.203 38.3599C157.143 39.3776 157.425 40.3871 158.008 41.2427C158.008 41.2427 155.218 40.4145 154.223 39.0569C151.571 39.3912 148.875 39.1955 146.307 38.4821C135.393 35.5495 127.367 24.7243 128.381 14.3063C129.395 3.88842 139.058 -2.19851 149.973 0.738603Z" fill="white"/>
<path d="M69.0618 17.434C69.2958 16.4634 69.7445 15.5514 70.3781 14.7585C71.0117 13.9657 71.8157 13.3103 72.7366 12.836C72.216 12.0959 71.9422 11.2237 71.9512 10.3333C71.994 7.4641 75.0118 5.1832 78.6866 5.23298C80.25 5.2446 81.7707 5.71916 83.0372 6.59066C84.4985 3.58114 88.792 2.45879 92.7 4.08348C95.9654 5.44116 97.936 8.29229 97.7123 10.976C98.3881 10.8671 99.0745 10.8292 99.7591 10.8628C104.043 11.0891 107.375 13.99 107.199 17.3435C107.08 19.3845 105.681 21.1178 103.638 22.1135C105.066 24.684 105.119 27.5894 103.534 29.807C101.949 32.0245 99.2498 33.0066 96.3033 32.812C94.0185 34.9345 90.2772 35.9437 86.3978 35.1744C85.6469 35.0253 84.9123 34.8101 84.2034 34.5317C82.8563 36.1926 79.9813 36.2107 79.9813 36.2107C80.8885 35.4395 81.5318 34.4275 81.8282 33.3053C80.4959 32.4373 79.4022 31.2779 78.639 29.9247C76.9206 29.9744 74.355 29.5762 72.8746 28.1914C71.6846 27.0781 71.0515 25.2769 71.4466 24.0731C69.495 22.2447 68.543 19.828 69.0618 17.434Z" fill="#022B67"/>
<path opacity="0.2" d="M69.0618 17.434C69.2958 16.4634 69.7445 15.5514 70.3781 14.7585C71.0117 13.9657 71.8157 13.3103 72.7366 12.836C72.216 12.0959 71.9422 11.2237 71.9512 10.3333C71.994 7.4641 75.0118 5.1832 78.6866 5.23298C80.25 5.2446 81.7707 5.71916 83.0372 6.59066C84.4985 3.58114 88.792 2.45879 92.7 4.08348C95.9654 5.44116 97.936 8.29229 97.7123 10.976C98.3881 10.8671 99.0745 10.8292 99.7591 10.8628C104.043 11.0891 107.375 13.99 107.199 17.3435C107.08 19.3845 105.681 21.1178 103.638 22.1135C105.066 24.684 105.119 27.5894 103.534 29.807C101.949 32.0245 99.2498 33.0066 96.3033 32.812C94.0185 34.9345 90.2772 35.9437 86.3978 35.1744C85.6469 35.0253 84.9123 34.8101 84.2034 34.5317C82.8563 36.1926 79.9813 36.2107 79.9813 36.2107C80.8885 35.4395 81.5318 34.4275 81.8282 33.3053C80.4959 32.4373 79.4022 31.2779 78.639 29.9247C76.9206 29.9744 74.355 29.5762 72.8746 28.1914C71.6846 27.0781 71.0515 25.2769 71.4466 24.0731C69.495 22.2447 68.543 19.828 69.0618 17.434Z" fill="black"/>
<path d="M126.875 39.3194L126.775 38.8669C129.102 38.4165 131.392 37.8116 133.63 37.0566L133.796 37.482C131.537 38.2476 129.225 38.8615 126.875 39.3194Z" fill="#022B67"/>
<path d="M121.405 40.2287L121.338 39.7762C122.242 39.654 123.147 39.5227 124.013 39.3779L124.094 39.8305C123.223 39.9617 122.333 40.1065 121.405 40.2287Z" fill="#022B67"/>
<path d="M136.61 18.9349C136.563 18.1874 136.239 17.4799 135.695 16.9381C135.151 16.3963 134.423 16.0551 133.64 15.9752C122.473 14.8664 106.841 17.3329 100.605 18.4824C99.8199 18.6254 99.114 19.0304 98.6148 19.6245C98.1156 20.2186 97.856 20.9627 97.8827 21.7227C98.1065 28.7374 100.025 33.3399 103.09 37.9696C103.387 38.412 103.794 38.7783 104.274 39.0363C104.755 39.2943 105.294 39.4362 105.846 39.4495C108.045 39.5083 110.211 39.4902 112.315 39.4087C113.415 40.8644 114.86 42.0536 116.532 42.8799C116.331 41.6442 116.331 40.3864 116.532 39.1508C123.282 38.5941 129.18 37.3948 133.221 35.9829C133.716 35.8073 134.16 35.5244 134.52 35.1567C134.879 34.789 135.144 34.3467 135.292 33.8649C136.843 28.9229 136.862 22.7138 136.61 18.9349Z" fill="#022B67"/>
</svg>
