<svg width="21" height="21" viewBox="0 0 21 21" fill="none" xmlns="http://www.w3.org/2000/svg">
<path d="M15.0363 13.271H14.1071L13.7777 12.9534C14.9702 11.5703 15.6257 9.80445 15.6244 7.97819C15.6244 6.46612 15.176 4.988 14.3359 3.73076C13.4958 2.47351 12.3018 1.49361 10.9049 0.914966C9.50788 0.33632 7.97069 0.18492 6.48767 0.479911C5.00465 0.774902 3.64241 1.50304 2.57321 2.57223C1.50401 3.64143 0.775879 5.00367 0.480888 6.48669C0.185897 7.96971 0.337297 9.5069 0.915943 10.9039C1.49459 12.3009 2.47449 13.4949 3.73173 14.3349C4.98898 15.175 6.4671 15.6234 7.97917 15.6234C9.87282 15.6234 11.6136 14.9294 12.9544 13.7768L13.272 14.1061V15.0353L19.1529 20.9044L20.9054 19.1519L15.0363 13.271ZM7.97917 13.271C5.05048 13.271 2.68635 10.9069 2.68635 7.97819C2.68635 5.0495 5.05048 2.68538 7.97917 2.68538C10.9079 2.68538 13.272 5.0495 13.272 7.97819C13.272 10.9069 10.9079 13.271 7.97917 13.271Z" fill="black" fill-opacity="0.65"/>
</svg>
